<?xml version="1.0" encoding="utf-8"?>
<!-- Generator: Adobe Illustrator 19.2.1, SVG Export Plug-In . SVG Version: 6.00 Build 0)  -->
<svg version="1.1" id="Ebene_1" xmlns="http://www.w3.org/2000/svg" xmlns:xlink="http://www.w3.org/1999/xlink" x="0px" y="0px"
	 viewBox="0 0 1920 1080" style="enable-background:new 0 0 1920 1080;" xml:space="preserve">
<style type="text/css">
	.st0{fill:#333333;}
	.st1{fill:none;}
</style>
<g>
	<path class="st0" d="M930.5,270.8c-126.4,0-228.9,102.5-228.9,228.9s102.5,228.9,228.9,228.9s228.9-102.5,228.9-228.9
		S1057,270.8,930.5,270.8z M930.5,629.4c-71.6,0-129.6-58-129.6-129.6s58-129.6,129.6-129.6s129.6,58,129.6,129.6
		S1002.1,629.4,930.5,629.4z"/>
	<circle class="st1" cx="930.5" cy="499.8" r="129.6"/>
</g>
<polygon class="st0" points="973.8,348.9 900.3,348.9 863.6,285.3 900.3,221.6 973.8,221.6 1010.6,285.3 "/>
<polygon class="st0" points="967.3,779.7 893.8,779.7 857,716 893.8,652.3 967.3,652.3 1004,716 "/>
<polygon class="st0" points="713.1,573.3 649.4,536.5 649.4,463 713.1,426.3 776.7,463 776.7,536.5 "/>
<polygon class="st0" points="1148,574.8 1084.3,538 1084.3,464.5 1148,427.8 1211.6,464.5 1211.6,538 "/>
<polygon class="st0" points="730.5,395 711.5,324 763.4,272.1 834.4,291.1 853.5,362.1 801.5,414 "/>
<polygon class="st0" points="1032.4,702.8 1013.3,631.8 1065.3,579.8 1136.3,598.8 1155.3,669.8 1103.3,721.8 "/>
<polygon class="st0" points="834.4,702.8 763.4,721.8 711.5,669.8 730.5,598.8 801.5,579.8 853.5,631.8 "/>
<polygon class="st0" points="1136.3,400.9 1065.3,419.9 1013.3,368 1032.4,297 1103.3,277.9 1155.3,329.9 "/>
<g>
	<path class="st0" d="M1350.2,295.4c-62.4,0-113,50.6-113,113s50.6,113,113,113s113-50.6,113-113S1412.6,295.4,1350.2,295.4z
		 M1350.2,472.5c-35.3,0-64-28.6-64-64s28.6-64,64-64c35.3,0,64,28.6,64,64S1385.6,472.5,1350.2,472.5z"/>
	<circle class="st1" cx="1350.2" cy="408.5" r="64"/>
</g>
<polygon class="st0" points="1371.6,334 1335.3,334 1317.2,302.6 1335.3,271.1 1371.6,271.1 1389.7,302.6 "/>
<polygon class="st0" points="1368.4,546.7 1332.1,546.7 1313.9,515.2 1332.1,483.8 1368.4,483.8 1386.5,515.2 "/>
<polygon class="st0" points="1242.9,444.8 1211.4,426.6 1211.4,390.3 1242.9,372.2 1274.3,390.3 1274.3,426.6 "/>
<polygon class="st0" points="1457.6,445.5 1426.1,427.4 1426.1,391.1 1457.6,372.9 1489,391.1 1489,427.4 "/>
<polygon class="st0" points="1251.4,356.8 1242.1,321.7 1267.7,296 1302.8,305.4 1312.2,340.5 1286.5,366.1 "/>
<polygon class="st0" points="1400.5,508.7 1391.1,473.6 1416.8,448 1451.8,457.4 1461.2,492.4 1435.5,518.1 "/>
<polygon class="st0" points="1302.8,508.7 1267.7,518.1 1242.1,492.4 1251.4,457.4 1286.5,448 1312.2,473.6 "/>
<polygon class="st0" points="1451.8,359.7 1416.8,369 1391.1,343.4 1400.5,308.3 1435.5,298.9 1461.2,324.6 "/>
<g>
	<path class="st0" d="M1291.2,615.4c-62.4,0-113,50.6-113,113s50.6,113,113,113s113-50.6,113-113S1353.6,615.4,1291.2,615.4z
		 M1291.2,792.5c-35.3,0-64-28.6-64-64c0-35.3,28.6-64,64-64c35.3,0,64,28.6,64,64C1355.2,763.8,1326.6,792.5,1291.2,792.5z"/>
	<circle class="st1" cx="1291.2" cy="728.5" r="64"/>
</g>
<polygon class="st0" points="1312.6,654 1276.3,654 1258.2,622.6 1276.3,591.1 1312.6,591.1 1330.7,622.6 "/>
<polygon class="st0" points="1309.4,866.7 1273.1,866.7 1254.9,835.2 1273.1,803.8 1309.4,803.8 1327.5,835.2 "/>
<polygon class="st0" points="1183.9,764.8 1152.4,746.6 1152.4,710.3 1183.9,692.2 1215.3,710.3 1215.3,746.6 "/>
<polygon class="st0" points="1398.6,765.5 1367.1,747.4 1367.1,711.1 1398.6,692.9 1430,711.1 1430,747.4 "/>
<polygon class="st0" points="1192.4,676.8 1183.1,641.7 1208.7,616 1243.8,625.4 1253.2,660.5 1227.5,686.1 "/>
<polygon class="st0" points="1341.5,828.7 1332.1,793.6 1357.8,768 1392.8,777.4 1402.2,812.4 1376.5,838.1 "/>
<polygon class="st0" points="1243.8,828.7 1208.7,838.1 1183.1,812.4 1192.4,777.4 1227.5,768 1253.2,793.6 "/>
<polygon class="st0" points="1392.8,679.7 1357.8,689 1332.1,663.4 1341.5,628.3 1376.5,618.9 1402.2,644.6 "/>
</svg>
