<?xml version="1.0" encoding="utf-8"?>
<!-- Generator: Adobe Illustrator 19.2.1, SVG Export Plug-In . SVG Version: 6.00 Build 0)  -->
<svg version="1.1" id="Ebene_1" xmlns="http://www.w3.org/2000/svg" xmlns:xlink="http://www.w3.org/1999/xlink" x="0px" y="0px"
	 viewBox="0 0 1920 1080" style="enable-background:new 0 0 1920 1080;" xml:space="preserve">
<style type="text/css">
	.st0{fill:#333333;}
	.st1{fill:#FFFFFF;}
</style>
<circle class="st0" cx="930.5" cy="499.8" r="228.9"/>
<circle class="st1" cx="930.5" cy="499.8" r="129.6"/>
<polygon class="st0" points="973.8,348.9 900.3,348.9 863.6,285.3 900.3,221.6 973.8,221.6 1010.6,285.3 "/>
<polygon class="st0" points="967.3,779.7 893.8,779.7 857,716 893.8,652.3 967.3,652.3 1004,716 "/>
<polygon class="st0" points="713.1,573.3 649.4,536.5 649.4,463 713.1,426.3 776.7,463 776.7,536.5 "/>
<polygon class="st0" points="1148,574.8 1084.3,538 1084.3,464.5 1148,427.8 1211.6,464.5 1211.6,538 "/>
<polygon class="st0" points="730.5,395 711.5,324 763.4,272.1 834.4,291.1 853.5,362.1 801.5,414 "/>
<polygon class="st0" points="1032.4,702.8 1013.3,631.8 1065.3,579.8 1136.3,598.8 1155.3,669.8 1103.3,721.8 "/>
<polygon class="st0" points="834.4,702.8 763.4,721.8 711.5,669.8 730.5,598.8 801.5,579.8 853.5,631.8 "/>
<polygon class="st0" points="1136.3,400.9 1065.3,419.9 1013.3,368 1032.4,297 1103.3,277.9 1155.3,329.9 "/>
<circle class="st0" cx="1298.3" cy="734.1" r="130.5"/>
<circle class="st1" cx="1298.3" cy="734.1" r="73.9"/>
<polygon class="st0" points="1323,648.1 1281.1,648.1 1260.2,611.9 1281.1,575.6 1323,575.6 1344,611.9 "/>
<polygon class="st0" points="1319.3,893.6 1277.4,893.6 1256.5,857.3 1277.4,821 1319.3,821 1340.2,857.3 "/>
<polygon class="st0" points="1174.4,776 1138.2,755.1 1138.2,713.2 1174.4,692.2 1210.7,713.2 1210.7,755.1 "/>
<polygon class="st0" points="1422.3,776.8 1386,755.9 1386,714 1422.3,693.1 1458.5,714 1458.5,755.9 "/>
<polygon class="st0" points="1184.4,674.4 1173.5,634 1203.1,604.3 1243.6,615.2 1254.4,655.6 1224.8,685.2 "/>
<polygon class="st0" points="1356.4,849.8 1345.5,809.3 1375.1,779.7 1415.6,790.5 1426.4,831 1396.8,860.6 "/>
<polygon class="st0" points="1243.6,849.8 1203.1,860.6 1173.5,831 1184.4,790.5 1224.8,779.7 1254.4,809.3 "/>
<polygon class="st0" points="1415.6,677.8 1375.1,688.6 1345.5,659 1356.4,618.5 1396.8,607.7 1426.4,637.3 "/>
<circle class="st0" cx="1300.3" cy="270.4" r="130.5"/>
<circle class="st1" cx="1300.3" cy="270.4" r="73.9"/>
<polygon class="st0" points="1325,184.4 1283.1,184.4 1262.2,148.1 1283.1,111.8 1325,111.8 1346,148.1 "/>
<polygon class="st0" points="1321.3,429.8 1279.4,429.8 1258.5,393.6 1279.4,357.3 1321.3,357.3 1342.2,393.6 "/>
<polygon class="st0" points="1176.4,312.2 1140.2,291.3 1140.2,249.4 1176.4,228.5 1212.7,249.4 1212.7,291.3 "/>
<polygon class="st0" points="1424.3,313.1 1388,292.2 1388,250.3 1424.3,229.3 1460.5,250.3 1460.5,292.2 "/>
<polygon class="st0" points="1186.4,210.7 1175.5,170.2 1205.1,140.6 1245.6,151.4 1256.4,191.9 1226.8,221.5 "/>
<polygon class="st0" points="1358.4,386 1347.5,345.6 1377.1,316 1417.6,326.8 1428.4,367.2 1398.8,396.9 "/>
<polygon class="st0" points="1245.6,386 1205.1,396.9 1175.5,367.2 1186.4,326.8 1226.8,316 1256.4,345.6 "/>
<polygon class="st0" points="1417.6,214 1377.1,224.8 1347.5,195.2 1358.4,154.8 1398.8,143.9 1428.4,173.6 "/>
</svg>
