<?xml version="1.0" encoding="utf-8"?>
<!-- Generator: Adobe Illustrator 19.2.1, SVG Export Plug-In . SVG Version: 6.00 Build 0)  -->
<svg version="1.1" id="Ebene_1" xmlns="http://www.w3.org/2000/svg" xmlns:xlink="http://www.w3.org/1999/xlink" x="0px" y="0px"
	 viewBox="0 0 1920 1080" style="enable-background:new 0 0 1920 1080;" xml:space="preserve">
<style type="text/css">
	.st0{enable-background:new    ;}
	.st1{clip-path:url(#SVGID_2_);enable-background:new    ;}
	.st2{fill:#1B1B1B;}
	.st3{fill:#1C1C1C;}
	.st4{fill:#1D1D1D;}
	.st5{fill:#1E1E1E;}
	.st6{fill:#1F1F1F;}
	.st7{fill:#202020;}
	.st8{fill:#212121;}
	.st9{fill:#222222;}
	.st10{fill:#232323;}
	.st11{fill:#242424;}
	.st12{fill:#252525;}
	.st13{fill:#262626;}
	.st14{fill:#272727;}
	.st15{fill:#282828;}
	.st16{fill:#292929;}
	.st17{fill:#2A2A2A;}
	.st18{fill:#2B2B2B;}
	.st19{clip-path:url(#SVGID_4_);enable-background:new    ;}
	.st20{clip-path:url(#SVGID_6_);enable-background:new    ;}
	.st21{clip-path:url(#SVGID_8_);enable-background:new    ;}
	.st22{clip-path:url(#SVGID_10_);enable-background:new    ;}
	.st23{clip-path:url(#SVGID_12_);enable-background:new    ;}
	.st24{clip-path:url(#SVGID_14_);enable-background:new    ;}
	.st25{clip-path:url(#SVGID_16_);enable-background:new    ;}
	.st26{clip-path:url(#SVGID_18_);enable-background:new    ;}
	.st27{clip-path:url(#SVGID_20_);enable-background:new    ;}
	.st28{clip-path:url(#SVGID_22_);enable-background:new    ;}
	.st29{clip-path:url(#SVGID_24_);enable-background:new    ;}
</style>
<g>
	<g>
		<g class="st0">
			<g class="st0">
				<defs>
					<path id="SVGID_1_" class="st0" d="M952.7,293.1v47c0-9.5-64.8-17.1-144.5-17.1c-79.7,0-144.5,7.7-144.5,17.1v-47
						c0-9.5,64.8-17.1,144.5-17.1C887.9,276,952.7,283.7,952.7,293.1z"/>
				</defs>
				<clipPath id="SVGID_2_">
					<use xlink:href="#SVGID_1_"  style="overflow:visible;"/>
				</clipPath>
				<g class="st1">
					<path class="st2" d="M952.7,293.1v47c0-1.9-2.6-3.7-7.5-5.5v-47C950.1,289.4,952.7,291.2,952.7,293.1"/>
					<path class="st3" d="M945.2,287.7v47c-1.1-0.4-2.3-0.8-3.7-1.2v-47C942.9,286.9,944.1,287.3,945.2,287.7"/>
					<path class="st4" d="M941.6,286.5v47c-1.3-0.4-2.7-0.7-4.2-1.1v-47C938.9,285.8,940.3,286.2,941.6,286.5"/>
					<path class="st5" d="M937.4,285.4v47c-1.6-0.4-3.2-0.7-5-1.1v-47C934.2,284.7,935.8,285.1,937.4,285.4"/>
					<path class="st6" d="M932.4,284.4v47c-1.9-0.4-3.9-0.8-6.1-1.1v-47C928.5,283.6,930.5,284,932.4,284.4"/>
					<path class="st7" d="M926.3,283.3v47c-2.4-0.4-4.9-0.8-7.6-1.2v-47C921.4,282.5,923.9,282.9,926.3,283.3"/>
					<path class="st8" d="M918.7,282.1v47c-3.1-0.4-6.3-0.8-9.7-1.2v-47C912.4,281.2,915.6,281.7,918.7,282.1"/>
					<path class="st9" d="M909,280.9v47c-3.9-0.5-8.1-0.9-12.4-1.3v-47C900.9,280,905.1,280.4,909,280.9"/>
					<path class="st10" d="M896.6,279.6v47c-5-0.5-10.2-0.9-15.7-1.3v-47C886.4,278.7,891.6,279.1,896.6,279.6"/>
					<path class="st11" d="M880.9,278.3v47c-6.2-0.4-12.8-0.8-19.6-1.1v-47C868.1,277.5,874.7,277.9,880.9,278.3"/>
					<path class="st12" d="M861.3,277.2v47c-7.6-0.4-15.4-0.6-23.5-0.8v-47C845.9,276.5,853.8,276.8,861.3,277.2"/>
					<path class="st13" d="M837.8,276.3v47c-8.7-0.2-17.8-0.3-27-0.4v-47C820,276,829.1,276.1,837.8,276.3"/>
					<path class="st14" d="M810.8,276v47c-0.8,0-1.7,0-2.5,0c-9,0-17.7,0.1-26.2,0.3v-47c8.5-0.2,17.3-0.3,26.2-0.3
						C809.1,276,810,276,810.8,276"/>
					<path class="st15" d="M782,276.3v47c-9.8,0.2-19.2,0.5-28.2,1v-47C762.8,276.8,772.2,276.5,782,276.3"/>
					<path class="st16" d="M753.8,277.3v47c-9.7,0.5-19,1.1-27.5,1.8v-47C734.9,278.3,744.1,277.7,753.8,277.3"/>
					<path class="st17" d="M726.3,279v47c-13.1,1.1-24.6,2.4-34.1,3.9v-47C701.7,281.4,713.2,280.1,726.3,279"/>
					<path class="st18" d="M692.2,282.9v47c-2.5,0.4-4.9,0.8-7.1,1.2v-47C687.4,283.7,689.7,283.3,692.2,282.9"/>
					<path class="st17" d="M685.2,284.2v47c-4.8,0.9-8.8,1.9-12.1,2.9v-47C676.4,286,680.4,285.1,685.2,284.2"/>
					<path class="st16" d="M673.1,287.1v47c-1.2,0.4-2.3,0.7-3.2,1.1v-47C670.9,287.8,671.9,287.4,673.1,287.1"/>
					<path class="st15" d="M669.9,288.2v47c-0.7,0.3-1.4,0.6-2,0.8v-47C668.5,288.7,669.2,288.5,669.9,288.2"/>
					<path class="st14" d="M667.9,289v47c-0.4,0.2-0.7,0.4-1.1,0.5v-47C667.2,289.4,667.6,289.2,667.9,289"/>
					<path class="st13" d="M666.9,289.6v47c-0.3,0.2-0.6,0.4-0.9,0.6v-47C666.3,289.9,666.6,289.8,666.9,289.6"/>
					<path class="st12" d="M666,290.1v47c-0.2,0.2-0.5,0.3-0.7,0.5v-47C665.5,290.4,665.7,290.3,666,290.1"/>
					<path class="st11" d="M665.3,290.6v47c-0.2,0.1-0.3,0.3-0.5,0.4v-47C665,290.9,665.2,290.7,665.3,290.6"/>
					<path class="st10" d="M664.8,291v47c-0.1,0.1-0.3,0.3-0.4,0.4v-47C664.6,291.3,664.7,291.2,664.8,291"/>
					<path class="st9" d="M664.5,291.4v47c-0.1,0.1-0.2,0.3-0.3,0.4v-47C664.2,291.7,664.3,291.6,664.5,291.4"/>
					<path class="st8" d="M664.1,291.9v47c-0.1,0.1-0.2,0.3-0.2,0.4v-47C664,292.1,664.1,292,664.1,291.9"/>
					<path class="st7" d="M663.9,292.3v47c-0.1,0.1-0.1,0.3-0.1,0.4v-47C663.8,292.5,663.9,292.4,663.9,292.3"/>
					<path class="st6" d="M663.8,292.7v47c0,0.1,0,0.3-0.1,0.4v-47C663.8,292.9,663.8,292.8,663.8,292.7"/>
					<path class="st5" d="M663.8,293.1v47c0,0,0,0,0,0.1L663.8,293.1C663.7,293.1,663.8,293.1,663.8,293.1"/>
				</g>
			</g>
			<g class="st0">
				<defs>
					<path id="SVGID_3_" class="st0" d="M808.3,357.3c-79.7,0-144.5-7.7-144.5-17.1v-47c0,9.5,64.8,17.1,144.5,17.1
						c79.7,0,144.5-7.7,144.5-17.1v47C952.7,349.6,887.9,357.3,808.3,357.3z"/>
				</defs>
				<clipPath id="SVGID_4_">
					<use xlink:href="#SVGID_3_"  style="overflow:visible;"/>
				</clipPath>
				<g class="st19">
					<path d="M952.7,293.1v47c0,0,0,0,0,0.1L952.7,293.1C952.7,293.2,952.7,293.2,952.7,293.1"/>
					<path d="M952.7,293.2v47c0,0.1,0,0.3-0.1,0.4v-47C952.7,293.5,952.7,293.3,952.7,293.2"/>
					<path d="M952.7,293.6v47c0,0.1-0.1,0.3-0.1,0.4v-47C952.6,293.9,952.7,293.7,952.7,293.6"/>
					<path d="M952.6,294v47c-0.1,0.1-0.1,0.3-0.2,0.4v-47C952.4,294.3,952.5,294.1,952.6,294"/>
					<path d="M952.4,294.4v47c-0.1,0.1-0.2,0.3-0.3,0.4v-47C952.2,294.7,952.3,294.6,952.4,294.4"/>
					<path d="M952,294.8v47c-0.1,0.1-0.2,0.3-0.4,0.4v-47C951.8,295.1,951.9,295,952,294.8"/>
					<path d="M951.7,295.2v47c-0.1,0.1-0.3,0.3-0.5,0.4v-47C951.3,295.5,951.5,295.4,951.7,295.2"/>
					<path d="M951.2,295.7v47c-0.2,0.2-0.4,0.3-0.7,0.5v-47C950.8,296,951,295.8,951.2,295.7"/>
					<path d="M950.5,296.1v47c-0.3,0.2-0.6,0.4-0.9,0.6v-47C949.9,296.5,950.2,296.3,950.5,296.1"/>
					<path d="M949.6,296.7v47c-0.3,0.2-0.7,0.4-1.1,0.5v-47C948.9,297.1,949.3,296.9,949.6,296.7"/>
					<path d="M948.6,297.2v47c-0.6,0.3-1.2,0.6-2,0.8v-47C947.3,297.8,948,297.5,948.6,297.2"/>
					<path d="M946.6,298.1v47c-1,0.4-2,0.8-3.2,1.1v-47C944.6,298.8,945.6,298.5,946.6,298.1"/>
					<path d="M943.4,299.2v47c-3.3,1-7.3,2-12.1,2.9v-47C936.1,301.2,940.1,300.2,943.4,299.2"/>
					<path d="M931.3,302.1v47c-2.2,0.4-4.6,0.8-7,1.2v-47C926.8,302.9,929.1,302.5,931.3,302.1"/>
					<path d="M924.3,303.3v47c-9.5,1.5-21,2.8-34.1,3.9v-47C903.3,306.2,914.8,304.9,924.3,303.3"/>
					<path d="M890.2,307.2v47c-8.6,0.7-17.8,1.3-27.5,1.8v-47C872.4,308.5,881.7,307.9,890.2,307.2"/>
					<path d="M862.7,309v47c-9,0.4-18.4,0.8-28.2,1v-47C844.3,309.8,853.7,309.4,862.7,309"/>
					<path d="M834.5,310v47c-8.5,0.2-17.3,0.3-26.2,0.3c-0.8,0-1.7,0-2.5,0v-47c0.8,0,1.7,0,2.5,0C817.2,310.3,826,310.2,834.5,310"
						/>
					<path d="M805.7,310.3v47c-9.2,0-18.3-0.1-27-0.4v-47C787.4,310.1,796.5,310.3,805.7,310.3"/>
					<path d="M778.7,309.9v47c-8.1-0.2-16-0.5-23.5-0.8v-47C762.7,309.4,770.6,309.7,778.7,309.9"/>
					<path d="M755.1,309.1v47c-6.8-0.3-13.3-0.7-19.6-1.1v-47C741.8,308.4,748.4,308.8,755.1,309.1"/>
					<path d="M735.6,307.9v47c-5.5-0.4-10.7-0.8-15.7-1.3v-47C724.9,307.1,730.1,307.6,735.6,307.9"/>
					<path d="M719.9,306.7v47c-4.3-0.4-8.5-0.8-12.4-1.3v-47C711.4,305.9,715.5,306.3,719.9,306.7"/>
					<path d="M707.5,305.4v47c-3.4-0.4-6.6-0.8-9.7-1.2v-47C700.8,304.6,704.1,305,707.5,305.4"/>
					<path d="M697.8,304.2v47c-2.7-0.4-5.2-0.8-7.6-1.2v-47C692.6,303.4,695.1,303.8,697.8,304.2"/>
					<path d="M690.2,303v47c-2.1-0.4-4.2-0.7-6.1-1.1v-47C686,302.3,688,302.6,690.2,303"/>
					<path d="M684.1,301.9v47c-1.8-0.4-3.4-0.7-5-1.1v-47C680.7,301.2,682.3,301.5,684.1,301.9"/>
					<path d="M679.1,300.8v47c-1.5-0.4-2.9-0.7-4.2-1.1v-47C676.2,300.1,677.6,300.5,679.1,300.8"/>
					<path d="M674.9,299.7v47c-1.3-0.4-2.6-0.8-3.7-1.2v-47C672.4,299,673.6,299.4,674.9,299.7"/>
					<path d="M671.3,298.6v47c-4.9-1.7-7.5-3.6-7.5-5.5v-47C663.8,295,666.4,296.9,671.3,298.6"/>
				</g>
			</g>
			<g>
				<path d="M808.3,276c79.7,0,144.5,7.7,144.5,17.1s-64.8,17.1-144.5,17.1c-79.7,0-144.5-7.7-144.5-17.1S728.6,276,808.3,276z"/>
			</g>
			<g class="st0">
				<defs>
					<path id="SVGID_5_" class="st0" d="M953.7,293.1v47c0,9.6-65.3,17.5-145.5,17.5c-80.2,0-145.5-7.8-145.5-17.5v-47
						c0,9.6,65.3,17.5,145.5,17.5C888.5,310.6,953.7,302.8,953.7,293.1z"/>
				</defs>
				<clipPath id="SVGID_6_">
					<use xlink:href="#SVGID_5_"  style="overflow:visible;"/>
				</clipPath>
				<g class="st20">
					<path class="st5" d="M953.7,293.1v47c0,0,0,0,0,0.1L953.7,293.1C953.7,293.2,953.7,293.2,953.7,293.1"/>
					<path class="st6" d="M953.7,293.2v47c0,0.1,0,0.3-0.1,0.4v-47C953.7,293.5,953.7,293.3,953.7,293.2"/>
					<path class="st7" d="M953.7,293.6v47c0,0.1-0.1,0.3-0.1,0.4v-47C953.6,293.9,953.7,293.8,953.7,293.6"/>
					<path class="st8" d="M953.6,294v47c-0.1,0.1-0.1,0.3-0.2,0.4v-47C953.4,294.3,953.5,294.2,953.6,294"/>
					<path class="st9" d="M953.3,294.5v47c-0.1,0.1-0.2,0.3-0.3,0.4v-47C953.1,294.7,953.2,294.6,953.3,294.5"/>
					<path class="st10" d="M953,294.9v47c-0.1,0.1-0.3,0.3-0.4,0.4v-47C952.8,295.2,952.9,295,953,294.9"/>
					<path class="st11" d="M952.6,295.3v47c-0.1,0.1-0.3,0.3-0.5,0.4v-47C952.3,295.6,952.5,295.5,952.6,295.3"/>
					<path class="st12" d="M952.1,295.7v47c-0.2,0.2-0.4,0.3-0.7,0.5v-47C951.7,296.1,951.9,295.9,952.1,295.7"/>
					<path class="st13" d="M951.4,296.2v47c-0.3,0.2-0.6,0.4-0.9,0.6v-47C950.9,296.6,951.2,296.4,951.4,296.2"/>
					<path class="st14" d="M950.5,296.8v47c-0.3,0.2-0.7,0.4-1.1,0.6v-47C949.8,297.2,950.2,297,950.5,296.8"/>
					<path class="st15" d="M949.4,297.4v47c-0.6,0.3-1.3,0.6-2,0.9v-47C948.2,298,948.8,297.7,949.4,297.4"/>
					<path class="st16" d="M947.4,298.2v47c-1,0.4-2.1,0.8-3.3,1.2v-47C945.3,299,946.4,298.6,947.4,298.2"/>
					<path class="st17" d="M944.1,299.4v47c-3.3,1-7.4,2-12.2,2.9v-47C936.7,301.4,940.8,300.4,944.1,299.4"/>
					<path class="st18" d="M932,302.3v47c-2.3,0.4-4.7,0.9-7.2,1.3v-47C927.3,303.2,929.7,302.8,932,302.3"/>
					<path class="st17" d="M924.7,303.6v47c-9.6,1.5-21.4,2.9-34.7,4v-47C903.4,306.5,915.1,305.1,924.7,303.6"/>
					<path class="st16" d="M890.1,307.6v47c-8.6,0.7-17.8,1.3-27.6,1.8v-47C872.2,308.9,881.5,308.3,890.1,307.6"/>
					<path class="st15" d="M862.5,309.4v47c-9,0.4-18.4,0.8-28.2,1v-47C844.1,310.1,853.5,309.8,862.5,309.4"/>
					<path class="st14" d="M834.3,310.3v47c-8.5,0.2-17.2,0.3-26.1,0.3c-0.8,0-1.7,0-2.5,0v-47c0.8,0,1.7,0,2.5,0
						C817.2,310.6,825.9,310.5,834.3,310.3"/>
					<path class="st13" d="M805.7,310.6v47c-9.2,0-18.2-0.1-26.9-0.4v-47C787.5,310.5,796.5,310.6,805.7,310.6"/>
					<path class="st12" d="M778.8,310.3v47c-8.1-0.2-15.9-0.5-23.5-0.8v-47C762.9,309.8,770.8,310.1,778.8,310.3"/>
					<path class="st11" d="M755.4,309.4v47c-6.8-0.3-13.3-0.7-19.6-1.1v-47C742,308.7,748.6,309.1,755.4,309.4"/>
					<path class="st10" d="M735.8,308.3v47c-5.5-0.4-10.8-0.8-15.8-1.3v-47C725,307.5,730.3,307.9,735.8,308.3"/>
					<path class="st9" d="M720,307v47c-4.4-0.4-8.5-0.8-12.5-1.3v-47C711.4,306.2,715.6,306.6,720,307"/>
					<path class="st8" d="M707.5,305.7v47c-3.5-0.4-6.8-0.8-9.9-1.3v-47C700.7,304.9,704,305.3,707.5,305.7"/>
					<path class="st7" d="M697.6,304.5v47c-2.7-0.4-5.3-0.8-7.7-1.2v-47C692.3,303.7,694.9,304.1,697.6,304.5"/>
					<path class="st6" d="M689.9,303.3v47c-2.2-0.4-4.3-0.7-6.2-1.1v-47C685.6,302.5,687.7,302.9,689.9,303.3"/>
					<path class="st5" d="M683.6,302.2v47c-1.8-0.4-3.5-0.7-5.1-1.1v-47C680.1,301.4,681.8,301.8,683.6,302.2"/>
					<path class="st4" d="M678.5,301.1v47c-1.5-0.4-2.9-0.7-4.3-1.1v-47C675.6,300.3,677,300.7,678.5,301.1"/>
					<path class="st3" d="M674.3,300v47c-1.4-0.4-2.7-0.8-3.8-1.2v-47C671.6,299.2,672.9,299.6,674.3,300"/>
					<path class="st2" d="M670.5,298.8v47c-5-1.8-7.7-3.7-7.7-5.6v-47C662.8,295.1,665.5,297,670.5,298.8"/>
				</g>
			</g>
			<g>
				<path class="st13" d="M808.3,275.6c80.2,0,145.5,7.8,145.5,17.5c0,9.6-65.3,17.5-145.5,17.5c-80.2,0-145.5-7.8-145.5-17.5
					C662.8,283.5,728,275.6,808.3,275.6z M808.3,310.3c79.7,0,144.5-7.7,144.5-17.1c0-9.5-64.8-17.1-144.5-17.1
					c-79.7,0-144.5,7.7-144.5,17.1C663.7,302.6,728.6,310.3,808.3,310.3"/>
			</g>
		</g>
	</g>
</g>
<g>
	<g>
		<g class="st0">
			<g class="st0">
				<defs>
					<path id="SVGID_7_" class="st0" d="M951.7,374.4v47c0-9.5-64.8-17.1-144.5-17.1s-144.5,7.7-144.5,17.1v-47
						c0-9.5,64.8-17.1,144.5-17.1S951.7,364.9,951.7,374.4z"/>
				</defs>
				<clipPath id="SVGID_8_">
					<use xlink:href="#SVGID_7_"  style="overflow:visible;"/>
				</clipPath>
				<g class="st21">
					<path class="st2" d="M951.7,374.4v47c0-1.9-2.6-3.7-7.5-5.5v-47C949.1,370.6,951.7,372.5,951.7,374.4"/>
					<path class="st3" d="M944.2,368.9v47c-1.1-0.4-2.3-0.8-3.7-1.2v-47C941.9,368.1,943.1,368.5,944.2,368.9"/>
					<path class="st4" d="M940.6,367.8v47c-1.3-0.4-2.7-0.7-4.2-1.1v-47C937.9,367,939.3,367.4,940.6,367.8"/>
					<path class="st5" d="M936.4,366.7v47c-1.6-0.4-3.2-0.7-5-1.1v-47C933.2,366,934.8,366.3,936.4,366.7"/>
					<path class="st6" d="M931.4,365.6v47c-1.9-0.4-3.9-0.8-6.1-1.1v-47C927.5,364.9,929.5,365.2,931.4,365.6"/>
					<path class="st7" d="M925.3,364.5v47c-2.4-0.4-4.9-0.8-7.6-1.2v-47C920.4,363.7,922.9,364.1,925.3,364.5"/>
					<path class="st8" d="M917.7,363.3v47c-3.1-0.4-6.3-0.8-9.7-1.2v-47C911.4,362.5,914.7,362.9,917.7,363.3"/>
					<path class="st9" d="M908,362.1v47c-3.9-0.5-8.1-0.9-12.4-1.3v-47C900,361.2,904.1,361.7,908,362.1"/>
					<path class="st10" d="M895.6,360.8v47c-5-0.5-10.2-0.9-15.7-1.3v-47C885.4,360,890.6,360.4,895.6,360.8"/>
					<path class="st11" d="M879.9,359.6v47c-6.2-0.4-12.8-0.8-19.6-1.1v-47C867.1,358.8,873.7,359.1,879.9,359.6"/>
					<path class="st12" d="M860.4,358.4v47c-7.6-0.4-15.4-0.6-23.5-0.8v-47C844.9,357.8,852.8,358.1,860.4,358.4"/>
					<path class="st13" d="M836.8,357.6v47c-8.7-0.2-17.8-0.3-27-0.4v-47C819,357.3,828.1,357.4,836.8,357.6"/>
					<path class="st14" d="M809.8,357.2v47c-0.8,0-1.7,0-2.5,0c-9,0-17.7,0.1-26.2,0.3v-47c8.5-0.2,17.3-0.3,26.2-0.3
						C808.1,357.2,808.9,357.2,809.8,357.2"/>
					<path class="st15" d="M781,357.5v47c-9.8,0.2-19.2,0.5-28.2,1v-47C761.8,358.1,771.2,357.7,781,357.5"/>
					<path class="st16" d="M752.8,358.5v47c-9.7,0.5-19,1.1-27.5,1.8v-47C733.8,359.6,743.1,359,752.8,358.5"/>
					<path class="st17" d="M725.3,360.3v47c-13.1,1.1-24.6,2.4-34.1,3.9v-47C700.7,362.7,712.2,361.3,725.3,360.3"/>
					<path class="st18" d="M691.2,364.2v47c-2.5,0.4-4.9,0.8-7.1,1.2v-47C686.4,365,688.7,364.6,691.2,364.2"/>
					<path class="st17" d="M684.2,365.4v47c-4.7,0.9-8.8,1.9-12,2.9v-47C675.4,367.3,679.4,366.3,684.2,365.4"/>
					<path class="st16" d="M672.1,368.3v47c-1.2,0.4-2.3,0.7-3.2,1.1v-47C669.9,369.1,670.9,368.7,672.1,368.3"/>
					<path class="st15" d="M668.9,369.4v47c-0.7,0.3-1.4,0.6-2,0.8v-47C667.5,370,668.2,369.7,668.9,369.4"/>
					<path class="st14" d="M666.9,370.3v47c-0.4,0.2-0.7,0.4-1.1,0.5v-47C666.2,370.6,666.6,370.5,666.9,370.3"/>
					<path class="st13" d="M665.9,370.8v47c-0.3,0.2-0.6,0.4-0.9,0.6v-47C665.3,371.2,665.6,371,665.9,370.8"/>
					<path class="st12" d="M665,371.4v47c-0.2,0.2-0.5,0.3-0.7,0.5v-47C664.5,371.7,664.7,371.5,665,371.4"/>
					<path class="st11" d="M664.3,371.9v47c-0.2,0.1-0.3,0.3-0.5,0.4v-47C664,372.1,664.1,372,664.3,371.9"/>
					<path class="st10" d="M663.8,372.3v47c-0.1,0.1-0.3,0.3-0.4,0.4v-47C663.6,372.5,663.7,372.4,663.8,372.3"/>
					<path class="st9" d="M663.4,372.7v47c-0.1,0.1-0.2,0.3-0.3,0.4v-47C663.2,373,663.3,372.8,663.4,372.7"/>
					<path class="st8" d="M663.1,373.1v47c-0.1,0.1-0.2,0.3-0.2,0.4v-47C663,373.4,663.1,373.2,663.1,373.1"/>
					<path class="st7" d="M662.9,373.5v47c-0.1,0.1-0.1,0.3-0.1,0.4v-47C662.8,373.8,662.9,373.6,662.9,373.5"/>
					<path class="st6" d="M662.8,373.9v47c0,0.1,0,0.3-0.1,0.4v-47C662.8,374.2,662.8,374.1,662.8,373.9"/>
					<path class="st5" d="M662.7,374.3v47c0,0,0,0,0,0.1L662.7,374.3C662.7,374.4,662.7,374.3,662.7,374.3"/>
				</g>
			</g>
			<g class="st0">
				<defs>
					<path id="SVGID_9_" class="st0" d="M807.3,438.5c-79.7,0-144.5-7.7-144.5-17.1v-47c0,9.5,64.8,17.1,144.5,17.1
						s144.5-7.7,144.5-17.1v47C951.7,430.8,886.9,438.5,807.3,438.5z"/>
				</defs>
				<clipPath id="SVGID_10_">
					<use xlink:href="#SVGID_9_"  style="overflow:visible;"/>
				</clipPath>
				<g class="st22">
					<path d="M951.7,374.4v47c0,0,0,0,0,0.1L951.7,374.4C951.7,374.4,951.7,374.4,951.7,374.4"/>
					<path d="M951.7,374.4v47c0,0.1,0,0.3-0.1,0.4v-47C951.7,374.7,951.7,374.6,951.7,374.4"/>
					<path d="M951.7,374.8v47c0,0.1-0.1,0.3-0.1,0.4v-47C951.6,375.1,951.7,375,951.7,374.8"/>
					<path d="M951.6,375.3v47c-0.1,0.1-0.1,0.3-0.2,0.4v-47C951.4,375.5,951.5,375.4,951.6,375.3"/>
					<path d="M951.4,375.7v47c-0.1,0.1-0.2,0.3-0.3,0.4v-47C951.2,375.9,951.3,375.8,951.4,375.7"/>
					<path d="M951,376.1v47c-0.1,0.1-0.2,0.3-0.4,0.4v-47C950.8,376.4,950.9,376.2,951,376.1"/>
					<path d="M950.7,376.5v47c-0.1,0.1-0.3,0.3-0.5,0.4v-47C950.3,376.8,950.5,376.6,950.7,376.5"/>
					<path d="M950.2,376.9v47c-0.2,0.2-0.4,0.3-0.7,0.5v-47C949.8,377.2,950,377.1,950.2,376.9"/>
					<path d="M949.5,377.4v47c-0.3,0.2-0.6,0.4-0.9,0.6v-47C948.9,377.8,949.2,377.6,949.5,377.4"/>
					<path d="M948.6,377.9v47c-0.3,0.2-0.7,0.4-1.1,0.5v-47C947.9,378.3,948.3,378.1,948.6,377.9"/>
					<path d="M947.6,378.5v47c-0.6,0.3-1.2,0.6-2,0.8v-47C946.3,379.1,947,378.8,947.6,378.5"/>
					<path d="M945.6,379.3v47c-1,0.4-2,0.8-3.2,1.1v-47C943.6,380.1,944.6,379.7,945.6,379.3"/>
					<path d="M942.4,380.5v47c-3.3,1-7.3,2-12.1,2.9v-47C935.1,382.4,939.1,381.5,942.4,380.5"/>
					<path d="M930.3,383.4v47c-2.2,0.4-4.6,0.8-7.1,1.2v-47C925.8,384.2,928.1,383.8,930.3,383.4"/>
					<path d="M923.3,384.6v47c-9.5,1.5-21,2.8-34.1,3.9v-47C902.3,387.4,913.8,386.1,923.3,384.6"/>
					<path d="M889.2,388.5v47c-8.6,0.7-17.8,1.3-27.5,1.8v-47C871.4,389.8,880.6,389.2,889.2,388.5"/>
					<path d="M861.7,390.3v47c-9,0.4-18.4,0.8-28.2,1v-47C843.3,391,852.7,390.7,861.7,390.3"/>
					<path d="M833.5,391.2v47c-8.5,0.2-17.3,0.3-26.2,0.3c-0.8,0-1.7,0-2.5,0v-47c0.8,0,1.7,0,2.5,0
						C816.2,391.5,825,391.4,833.5,391.2"/>
					<path d="M804.7,391.5v47c-9.2,0-18.3-0.1-27-0.4v-47C786.4,391.4,795.5,391.5,804.7,391.5"/>
					<path d="M777.7,391.2v47c-8.1-0.2-16-0.5-23.5-0.8v-47C761.7,390.7,769.6,391,777.7,391.2"/>
					<path d="M754.2,390.3v47c-6.8-0.3-13.3-0.7-19.6-1.1v-47C740.8,389.6,747.4,390,754.2,390.3"/>
					<path d="M734.6,389.2v47c-5.5-0.4-10.7-0.8-15.7-1.3v-47C723.9,388.4,729.1,388.8,734.6,389.2"/>
					<path d="M718.9,387.9v47c-4.3-0.4-8.5-0.8-12.4-1.3v-47C710.4,387.1,714.6,387.5,718.9,387.9"/>
					<path d="M706.5,386.7v47c-3.4-0.4-6.6-0.8-9.7-1.2v-47C699.8,385.9,703.1,386.3,706.5,386.7"/>
					<path d="M696.8,385.4v47c-2.7-0.4-5.2-0.8-7.6-1.2v-47C691.6,384.7,694.1,385,696.8,385.4"/>
					<path d="M689.2,384.3v47c-2.1-0.4-4.2-0.7-6.1-1.1v-47C685,383.5,687,383.9,689.2,384.3"/>
					<path d="M683.1,383.1v47c-1.8-0.4-3.4-0.7-5-1.1v-47C679.7,382.4,681.3,382.8,683.1,383.1"/>
					<path d="M678.1,382.1v47c-1.5-0.4-2.9-0.7-4.2-1.1v-47C675.2,381.4,676.6,381.7,678.1,382.1"/>
					<path d="M673.9,381v47c-1.3-0.4-2.6-0.8-3.7-1.2v-47C671.4,380.2,672.6,380.6,673.9,381"/>
					<path d="M670.3,379.8v47c-4.9-1.7-7.5-3.6-7.5-5.5v-47C662.7,376.3,665.4,378.1,670.3,379.8"/>
				</g>
			</g>
			<g>
				<path d="M807.3,357.2c79.7,0,144.5,7.7,144.5,17.1s-64.8,17.1-144.5,17.1s-144.5-7.7-144.5-17.1S727.6,357.2,807.3,357.2z"/>
			</g>
			<g class="st0">
				<defs>
					<path id="SVGID_11_" class="st0" d="M952.7,374.4v47c0,9.6-65.3,17.5-145.5,17.5c-80.2,0-145.5-7.8-145.5-17.5v-47
						c0,9.6,65.3,17.5,145.5,17.5C887.5,391.9,952.7,384,952.7,374.4z"/>
				</defs>
				<clipPath id="SVGID_12_">
					<use xlink:href="#SVGID_11_"  style="overflow:visible;"/>
				</clipPath>
				<g class="st23">
					<path class="st5" d="M952.7,374.4v47c0,0,0,0,0,0.1L952.7,374.4C952.7,374.4,952.7,374.4,952.7,374.4"/>
					<path class="st6" d="M952.7,374.4v47c0,0.1,0,0.3-0.1,0.4v-47C952.7,374.7,952.7,374.6,952.7,374.4"/>
					<path class="st7" d="M952.7,374.9v47c0,0.1-0.1,0.3-0.1,0.4v-47C952.6,375.1,952.7,375,952.7,374.9"/>
					<path class="st8" d="M952.6,375.3v47c-0.1,0.1-0.1,0.3-0.2,0.4v-47C952.4,375.6,952.5,375.4,952.6,375.3"/>
					<path class="st9" d="M952.3,375.7v47c-0.1,0.1-0.2,0.3-0.3,0.4v-47C952.1,376,952.2,375.8,952.3,375.7"/>
					<path class="st10" d="M952,376.1v47c-0.1,0.1-0.3,0.3-0.4,0.4v-47C951.8,376.4,951.9,376.3,952,376.1"/>
					<path class="st11" d="M951.6,376.6v47c-0.1,0.1-0.3,0.3-0.5,0.4v-47C951.3,376.9,951.5,376.7,951.6,376.6"/>
					<path class="st12" d="M951.1,377v47c-0.2,0.2-0.4,0.3-0.7,0.5v-47C950.7,377.3,950.9,377.2,951.1,377"/>
					<path class="st13" d="M950.4,377.5v47c-0.3,0.2-0.6,0.4-0.9,0.6v-47C949.9,377.9,950.2,377.7,950.4,377.5"/>
					<path class="st14" d="M949.5,378.1v47c-0.3,0.2-0.7,0.4-1.1,0.6v-47C948.8,378.4,949.2,378.2,949.5,378.1"/>
					<path class="st15" d="M948.4,378.6v47c-0.6,0.3-1.3,0.6-2,0.9v-47C947.2,379.2,947.8,378.9,948.4,378.6"/>
					<path class="st16" d="M946.4,379.5v47c-1,0.4-2.1,0.8-3.3,1.2v-47C944.3,380.3,945.4,379.9,946.4,379.5"/>
					<path class="st17" d="M943.1,380.6v47c-3.3,1-7.4,2-12.2,2.9v-47C935.7,382.7,939.8,381.7,943.1,380.6"/>
					<path class="st18" d="M931,383.6v47c-2.2,0.4-4.6,0.9-7.2,1.3v-47C926.3,384.4,928.7,384,931,383.6"/>
					<path class="st17" d="M923.8,384.8v47c-9.7,1.5-21.4,2.9-34.7,4v-47C902.4,387.7,914.1,386.4,923.8,384.8"/>
					<path class="st16" d="M889,388.8v47c-8.6,0.7-17.8,1.3-27.6,1.8v-47C871.2,390.1,880.5,389.5,889,388.8"/>
					<path class="st15" d="M861.5,390.6v47c-9,0.4-18.4,0.8-28.1,1v-47C843.1,391.4,852.5,391,861.5,390.6"/>
					<path class="st14" d="M833.3,391.6v47c-8.5,0.2-17.2,0.3-26.1,0.3c-0.8,0-1.7,0-2.5,0v-47c0.8,0,1.7,0,2.5,0
						C816.2,391.9,824.9,391.8,833.3,391.6"/>
					<path class="st13" d="M804.7,391.9v47c-9.2,0-18.2-0.1-26.9-0.4v-47C786.6,391.7,795.5,391.9,804.7,391.9"/>
					<path class="st12" d="M777.8,391.5v47c-8.1-0.2-15.9-0.5-23.5-0.8v-47C761.9,391,769.8,391.3,777.8,391.5"/>
					<path class="st11" d="M754.4,390.7v47c-6.8-0.3-13.3-0.7-19.6-1.1v-47C741.1,390,747.6,390.4,754.4,390.7"/>
					<path class="st10" d="M734.8,389.5v47c-5.5-0.4-10.8-0.8-15.8-1.3v-47C724,388.7,729.3,389.2,734.8,389.5"/>
					<path class="st9" d="M719,388.3v47c-4.4-0.4-8.5-0.8-12.5-1.3v-47C710.5,387.4,714.6,387.9,719,388.3"/>
					<path class="st8" d="M706.5,387v47c-3.5-0.4-6.8-0.8-9.9-1.3v-47C699.7,386.2,703,386.6,706.5,387"/>
					<path class="st7" d="M696.6,385.7v47c-2.7-0.4-5.3-0.8-7.7-1.2v-47C691.3,384.9,693.9,385.3,696.6,385.7"/>
					<path class="st6" d="M688.9,384.5v47c-2.2-0.4-4.3-0.7-6.2-1.1v-47C684.6,383.8,686.7,384.2,688.9,384.5"/>
					<path class="st5" d="M682.6,383.4v47c-1.8-0.4-3.5-0.7-5.1-1.1v-47C679.1,382.7,680.8,383,682.6,383.4"/>
					<path class="st4" d="M677.5,382.3v47c-1.5-0.4-2.9-0.7-4.3-1.1v-47C674.6,381.6,676,381.9,677.5,382.3"/>
					<path class="st3" d="M673.3,381.2v47c-1.4-0.4-2.7-0.8-3.8-1.2v-47C670.6,380.4,671.9,380.8,673.3,381.2"/>
					<path class="st2" d="M669.5,380v47c-5-1.8-7.7-3.7-7.7-5.6v-47C661.7,376.4,664.5,378.2,669.5,380"/>
				</g>
			</g>
			<g>
				<path class="st13" d="M807.3,356.9c80.2,0,145.5,7.8,145.5,17.5s-65.3,17.5-145.5,17.5c-80.2,0-145.5-7.8-145.5-17.5
					S727,356.9,807.3,356.9z M807.3,391.5c79.7,0,144.5-7.7,144.5-17.1s-64.8-17.1-144.5-17.1s-144.5,7.7-144.5,17.1
					S727.6,391.5,807.3,391.5"/>
			</g>
		</g>
	</g>
</g>
<g>
	<g>
		<g class="st0">
			<g class="st0">
				<defs>
					<path id="SVGID_13_" class="st0" d="M952.3,455.6v47c0-9.5-64.8-17.1-144.5-17.1s-144.5,7.7-144.5,17.1v-47
						c0-9.5,64.8-17.1,144.5-17.1S952.3,446.2,952.3,455.6z"/>
				</defs>
				<clipPath id="SVGID_14_">
					<use xlink:href="#SVGID_13_"  style="overflow:visible;"/>
				</clipPath>
				<g class="st24">
					<path class="st2" d="M952.3,455.6v47c0-1.9-2.6-3.7-7.5-5.5v-47C949.6,451.9,952.3,453.7,952.3,455.6"/>
					<path class="st3" d="M944.7,450.2v47c-1.1-0.4-2.3-0.8-3.7-1.2v-47C942.4,449.4,943.6,449.8,944.7,450.2"/>
					<path class="st4" d="M941.1,449v47c-1.3-0.4-2.7-0.7-4.2-1.1v-47C938.4,448.3,939.8,448.7,941.1,449"/>
					<path class="st5" d="M936.9,447.9v47c-1.6-0.4-3.2-0.7-5-1.1v-47C933.7,447.2,935.3,447.6,936.9,447.9"/>
					<path class="st6" d="M931.9,446.9v47c-1.9-0.4-3.9-0.8-6.1-1.1v-47C928,446.1,930,446.5,931.9,446.9"/>
					<path class="st7" d="M925.8,445.8v47c-2.4-0.4-4.9-0.8-7.6-1.2v-47C920.9,445,923.4,445.4,925.8,445.8"/>
					<path class="st8" d="M918.2,444.6v47c-3.1-0.4-6.3-0.8-9.7-1.2v-47C911.9,443.7,915.2,444.2,918.2,444.6"/>
					<path class="st9" d="M908.5,443.4v47c-3.9-0.5-8.1-0.9-12.4-1.3v-47C900.5,442.5,904.6,442.9,908.5,443.4"/>
					<path class="st10" d="M896.1,442.1v47c-5-0.5-10.2-0.9-15.7-1.3v-47C885.9,441.2,891.1,441.6,896.1,442.1"/>
					<path class="st11" d="M880.4,440.8v47c-6.2-0.4-12.8-0.8-19.6-1.1v-47C867.6,440,874.2,440.4,880.4,440.8"/>
					<path class="st12" d="M860.9,439.7v47c-7.6-0.4-15.4-0.6-23.5-0.8v-47C845.4,439.1,853.3,439.3,860.9,439.7"/>
					<path class="st13" d="M837.3,438.8v47c-8.7-0.2-17.8-0.3-27-0.4v-47C819.5,438.5,828.6,438.6,837.3,438.8"/>
					<path class="st14" d="M810.3,438.5v47c-0.8,0-1.7,0-2.5,0c-9,0-17.7,0.1-26.2,0.3v-47c8.5-0.2,17.3-0.3,26.2-0.3
						C808.6,438.5,809.4,438.5,810.3,438.5"/>
					<path class="st15" d="M781.5,438.8v47c-9.8,0.2-19.2,0.5-28.2,1v-47C762.3,439.3,771.7,439,781.5,438.8"/>
					<path class="st16" d="M753.3,439.8v47c-9.7,0.5-19,1.1-27.5,1.8v-47C734.3,440.8,743.6,440.2,753.3,439.8"/>
					<path class="st17" d="M725.8,441.5v47c-13.1,1.1-24.6,2.4-34.1,3.9v-47C701.2,443.9,712.7,442.6,725.8,441.5"/>
					<path class="st18" d="M691.7,445.4v47c-2.5,0.4-4.9,0.8-7.1,1.2v-47C686.9,446.2,689.2,445.8,691.7,445.4"/>
					<path class="st17" d="M684.7,446.7v47c-4.7,0.9-8.8,1.9-12,2.9v-47C675.9,448.5,679.9,447.6,684.7,446.7"/>
					<path class="st16" d="M672.6,449.6v47c-1.2,0.4-2.3,0.7-3.2,1.1v-47C670.4,450.3,671.4,449.9,672.6,449.6"/>
					<path class="st15" d="M669.4,450.7v47c-0.7,0.3-1.4,0.6-2,0.8v-47C668,451.2,668.7,451,669.4,450.7"/>
					<path class="st14" d="M667.4,451.5v47c-0.4,0.2-0.7,0.4-1.1,0.5v-47C666.7,451.9,667.1,451.7,667.4,451.5"/>
					<path class="st13" d="M666.4,452.1v47c-0.3,0.2-0.6,0.4-0.9,0.6v-47C665.7,452.4,666.1,452.3,666.4,452.1"/>
					<path class="st12" d="M665.5,452.6v47c-0.2,0.2-0.5,0.3-0.7,0.5v-47C665,452.9,665.2,452.8,665.5,452.6"/>
					<path class="st11" d="M664.8,453.1v47c-0.2,0.1-0.3,0.3-0.5,0.4v-47C664.5,453.4,664.6,453.2,664.8,453.1"/>
					<path class="st10" d="M664.3,453.5v47c-0.1,0.1-0.3,0.3-0.4,0.4v-47C664.1,453.8,664.2,453.7,664.3,453.5"/>
					<path class="st9" d="M663.9,453.9v47c-0.1,0.1-0.2,0.3-0.3,0.4v-47C663.7,454.2,663.8,454.1,663.9,453.9"/>
					<path class="st8" d="M663.6,454.4v47c-0.1,0.1-0.2,0.3-0.2,0.4v-47C663.5,454.6,663.6,454.5,663.6,454.4"/>
					<path class="st7" d="M663.4,454.8v47c-0.1,0.1-0.1,0.3-0.1,0.4v-47C663.3,455,663.4,454.9,663.4,454.8"/>
					<path class="st6" d="M663.3,455.2v47c0,0.1,0,0.3-0.1,0.4v-47C663.3,455.4,663.3,455.3,663.3,455.2"/>
					<path class="st5" d="M663.2,455.6v47c0,0,0,0,0,0.1L663.2,455.6C663.2,455.6,663.2,455.6,663.2,455.6"/>
				</g>
			</g>
			<g class="st0">
				<defs>
					<path id="SVGID_15_" class="st0" d="M807.8,519.8c-79.7,0-144.5-7.7-144.5-17.1v-47c0,9.5,64.8,17.1,144.5,17.1
						s144.5-7.7,144.5-17.1v47C952.3,512.1,887.4,519.8,807.8,519.8z"/>
				</defs>
				<clipPath id="SVGID_16_">
					<use xlink:href="#SVGID_15_"  style="overflow:visible;"/>
				</clipPath>
				<g class="st25">
					<path d="M952.3,455.6v47c0,0,0,0,0,0.1L952.3,455.6C952.3,455.7,952.3,455.6,952.3,455.6"/>
					<path d="M952.3,455.7v47c0,0.1,0,0.3-0.1,0.4v-47C952.2,456,952.2,455.8,952.3,455.7"/>
					<path d="M952.2,456.1v47c0,0.1-0.1,0.3-0.1,0.4v-47C952.1,456.4,952.2,456.2,952.2,456.1"/>
					<path d="M952.1,456.5v47c-0.1,0.1-0.1,0.3-0.2,0.4v-47C951.9,456.8,952,456.6,952.1,456.5"/>
					<path d="M951.9,456.9v47c-0.1,0.1-0.2,0.3-0.3,0.4v-47C951.7,457.2,951.8,457,951.9,456.9"/>
					<path d="M951.6,457.3v47c-0.1,0.1-0.2,0.3-0.4,0.4v-47C951.3,457.6,951.4,457.5,951.6,457.3"/>
					<path d="M951.2,457.7v47c-0.1,0.1-0.3,0.3-0.5,0.4v-47C950.9,458,951,457.9,951.2,457.7"/>
					<path d="M950.7,458.2v47c-0.2,0.2-0.4,0.3-0.7,0.5v-47C950.3,458.5,950.5,458.3,950.7,458.2"/>
					<path d="M950,458.6v47c-0.3,0.2-0.6,0.4-0.9,0.6v-47C949.4,459,949.8,458.8,950,458.6"/>
					<path d="M949.1,459.2v47c-0.3,0.2-0.7,0.4-1.1,0.5v-47C948.4,459.6,948.8,459.4,949.1,459.2"/>
					<path d="M948.1,459.7v47c-0.6,0.3-1.2,0.6-2,0.8v-47C946.8,460.3,947.5,460,948.1,459.7"/>
					<path d="M946.1,460.6v47c-1,0.4-2,0.8-3.2,1.1v-47C944.1,461.3,945.1,461,946.1,460.6"/>
					<path d="M942.9,461.7v47c-3.3,1-7.3,2-12.1,2.9v-47C935.6,463.7,939.6,462.7,942.9,461.7"/>
					<path d="M930.8,464.6v47c-2.2,0.4-4.6,0.8-7.1,1.2v-47C926.3,465.4,928.6,465,930.8,464.6"/>
					<path d="M923.8,465.8v47c-9.5,1.5-21,2.8-34.1,3.9v-47C902.8,468.7,914.3,467.4,923.8,465.8"/>
					<path d="M889.7,469.7v47c-8.6,0.7-17.8,1.3-27.5,1.8v-47C871.9,471,881.1,470.4,889.7,469.7"/>
					<path d="M862.2,471.5v47c-9,0.4-18.4,0.8-28.2,1v-47C843.8,472.3,853.2,471.9,862.2,471.5"/>
					<path d="M834,472.5v47c-8.5,0.2-17.3,0.3-26.2,0.3c-0.8,0-1.7,0-2.5,0v-47c0.8,0,1.7,0,2.5,0
						C816.7,472.8,825.5,472.7,834,472.5"/>
					<path d="M805.2,472.8v47c-9.2,0-18.3-0.1-27-0.4v-47C786.9,472.6,796,472.8,805.2,472.8"/>
					<path d="M778.2,472.4v47c-8.1-0.2-16-0.5-23.5-0.8v-47C762.2,471.9,770.1,472.2,778.2,472.4"/>
					<path d="M754.7,471.6v47c-6.8-0.3-13.3-0.7-19.6-1.1v-47C741.3,470.9,747.9,471.3,754.7,471.6"/>
					<path d="M735.1,470.4v47c-5.5-0.4-10.7-0.8-15.7-1.3v-47C724.4,469.6,729.6,470.1,735.1,470.4"/>
					<path d="M719.4,469.2v47c-4.3-0.4-8.5-0.8-12.4-1.3v-47C710.9,468.4,715.1,468.8,719.4,469.2"/>
					<path d="M707,467.9v47c-3.4-0.4-6.6-0.8-9.7-1.2v-47C700.3,467.1,703.6,467.5,707,467.9"/>
					<path d="M697.3,466.7v47c-2.7-0.4-5.2-0.8-7.6-1.2v-47C692.1,465.9,694.6,466.3,697.3,466.7"/>
					<path d="M689.7,465.5v47c-2.1-0.4-4.2-0.7-6.1-1.1v-47C685.5,464.8,687.5,465.1,689.7,465.5"/>
					<path d="M683.6,464.4v47c-1.8-0.4-3.4-0.7-5-1.1v-47C680.2,463.7,681.8,464,683.6,464.4"/>
					<path d="M678.6,463.3v47c-1.5-0.4-2.9-0.7-4.2-1.1v-47C675.7,462.6,677.1,463,678.6,463.3"/>
					<path d="M674.4,462.2v47c-1.3-0.4-2.6-0.8-3.7-1.2v-47C671.9,461.5,673.1,461.9,674.4,462.2"/>
					<path d="M670.8,461.1v47c-4.9-1.7-7.5-3.6-7.5-5.5v-47C663.2,457.5,665.9,459.4,670.8,461.1"/>
				</g>
			</g>
			<g>
				<path d="M807.8,438.5c79.7,0,144.5,7.7,144.5,17.1c0,9.5-64.8,17.1-144.5,17.1s-144.5-7.7-144.5-17.1
					C663.2,446.2,728.1,438.5,807.8,438.5z"/>
			</g>
			<g class="st0">
				<defs>
					<path id="SVGID_17_" class="st0" d="M953.3,455.6v47c0,9.6-65.3,17.5-145.5,17.5s-145.5-7.8-145.5-17.5v-47
						c0,9.6,65.3,17.5,145.5,17.5S953.3,465.3,953.3,455.6z"/>
				</defs>
				<clipPath id="SVGID_18_">
					<use xlink:href="#SVGID_17_"  style="overflow:visible;"/>
				</clipPath>
				<g class="st26">
					<path class="st5" d="M953.3,455.6v47c0,0,0,0,0,0.1L953.3,455.6C953.3,455.7,953.3,455.7,953.3,455.6"/>
					<path class="st6" d="M953.3,455.7v47c0,0.1,0,0.3-0.1,0.4v-47C953.2,456,953.2,455.8,953.3,455.7"/>
					<path class="st7" d="M953.2,456.1v47c0,0.1-0.1,0.3-0.1,0.4v-47C953.1,456.4,953.2,456.3,953.2,456.1"/>
					<path class="st8" d="M953.1,456.5v47c-0.1,0.1-0.1,0.3-0.2,0.4v-47C952.9,456.8,953,456.7,953.1,456.5"/>
					<path class="st9" d="M952.8,457v47c-0.1,0.1-0.2,0.3-0.3,0.4v-47C952.6,457.2,952.8,457.1,952.8,457"/>
					<path class="st10" d="M952.5,457.4v47c-0.1,0.1-0.3,0.3-0.4,0.4v-47C952.3,457.7,952.4,457.5,952.5,457.4"/>
					<path class="st11" d="M952.1,457.8v47c-0.1,0.1-0.3,0.3-0.5,0.4v-47C951.8,458.1,952,458,952.1,457.8"/>
					<path class="st12" d="M951.6,458.2v47c-0.2,0.2-0.4,0.3-0.7,0.5v-47C951.2,458.6,951.4,458.4,951.6,458.2"/>
					<path class="st13" d="M950.9,458.7v47c-0.3,0.2-0.6,0.4-0.9,0.6v-47C950.4,459.1,950.7,458.9,950.9,458.7"/>
					<path class="st14" d="M950,459.3v47c-0.3,0.2-0.7,0.4-1.1,0.6v-47C949.3,459.7,949.7,459.5,950,459.3"/>
					<path class="st15" d="M948.9,459.9v47c-0.6,0.3-1.3,0.6-2,0.9v-47C947.7,460.5,948.3,460.2,948.9,459.9"/>
					<path class="st16" d="M946.9,460.7v47c-1,0.4-2.1,0.8-3.3,1.2v-47C944.8,461.5,945.9,461.1,946.9,460.7"/>
					<path class="st17" d="M943.6,461.9v47c-3.3,1-7.4,2-12.2,2.9v-47C936.2,463.9,940.3,462.9,943.6,461.9"/>
					<path class="st18" d="M931.5,464.8v47c-2.3,0.4-4.7,0.9-7.2,1.3v-47C926.8,465.7,929.2,465.3,931.5,464.8"/>
					<path class="st17" d="M924.2,466.1v47c-9.6,1.5-21.4,2.9-34.7,4v-47C902.9,469,914.6,467.6,924.2,466.1"/>
					<path class="st16" d="M889.6,470.1v47c-8.6,0.7-17.8,1.3-27.6,1.8v-47C871.7,471.4,881,470.8,889.6,470.1"/>
					<path class="st15" d="M862,471.9v47c-9,0.4-18.4,0.8-28.2,1v-47C843.6,472.6,853,472.3,862,471.9"/>
					<path class="st14" d="M833.8,472.8v47c-8.5,0.2-17.2,0.3-26.1,0.3c-0.8,0-1.7,0-2.5,0v-47c0.8,0,1.7,0,2.5,0
						C816.7,473.1,825.4,473,833.8,472.8"/>
					<path class="st13" d="M805.2,473.1v47c-9.2,0-18.2-0.1-26.9-0.4v-47C787,473,796,473.1,805.2,473.1"/>
					<path class="st12" d="M778.3,472.8v47c-8.1-0.2-15.9-0.5-23.5-0.8v-47C762.4,472.3,770.3,472.6,778.3,472.8"/>
					<path class="st11" d="M754.9,471.9v47c-6.8-0.3-13.3-0.7-19.6-1.1v-47C741.6,471.2,748.1,471.6,754.9,471.9"/>
					<path class="st10" d="M735.3,470.8v47c-5.5-0.4-10.8-0.8-15.8-1.3v-47C724.5,470,729.8,470.4,735.3,470.8"/>
					<path class="st9" d="M719.5,469.5v47c-4.4-0.4-8.5-0.8-12.5-1.3v-47C710.9,468.7,715.1,469.1,719.5,469.5"/>
					<path class="st8" d="M707,468.2v47c-3.5-0.4-6.8-0.8-9.9-1.3v-47C700.2,467.4,703.5,467.8,707,468.2"/>
					<path class="st7" d="M697.1,467v47c-2.7-0.4-5.3-0.8-7.7-1.2v-47C691.8,466.2,694.4,466.6,697.1,467"/>
					<path class="st6" d="M689.4,465.8v47c-2.2-0.4-4.3-0.7-6.2-1.1v-47C685.1,465,687.2,465.4,689.4,465.8"/>
					<path class="st5" d="M683.1,464.7v47c-1.8-0.4-3.5-0.7-5.1-1.1v-47C679.6,463.9,681.3,464.3,683.1,464.7"/>
					<path class="st4" d="M678,463.6v47c-1.5-0.4-2.9-0.7-4.3-1.1v-47C675.1,462.8,676.5,463.2,678,463.6"/>
					<path class="st3" d="M673.8,462.5v47c-1.4-0.4-2.7-0.8-3.8-1.2v-47C671.1,461.7,672.4,462.1,673.8,462.5"/>
					<path class="st2" d="M670,461.3v47c-5-1.8-7.7-3.7-7.7-5.6v-47C662.2,457.6,665,459.5,670,461.3"/>
				</g>
			</g>
			<g>
				<path class="st13" d="M807.7,438.1c80.2,0,145.5,7.8,145.5,17.5c0,9.6-65.3,17.5-145.5,17.5s-145.5-7.8-145.5-17.5
					C662.2,446,727.5,438.1,807.7,438.1z M807.7,472.8c79.7,0,144.5-7.7,144.5-17.1s-64.8-17.1-144.5-17.1s-144.5,7.7-144.5,17.1
					S728.1,472.8,807.7,472.8"/>
			</g>
		</g>
	</g>
</g>
<g>
	<g>
		<g class="st0">
			<g class="st0">
				<defs>
					<path id="SVGID_19_" class="st0" d="M951.2,536.9v47c0-9.5-64.8-17.1-144.5-17.1c-79.7,0-144.5,7.7-144.5,17.1v-47
						c0-9.5,64.8-17.1,144.5-17.1C886.4,519.7,951.2,527.4,951.2,536.9z"/>
				</defs>
				<clipPath id="SVGID_20_">
					<use xlink:href="#SVGID_19_"  style="overflow:visible;"/>
				</clipPath>
				<g class="st27">
					<path class="st2" d="M951.2,536.9v47c0-1.9-2.6-3.7-7.5-5.5v-47C948.6,533.1,951.2,535,951.2,536.9"/>
					<path class="st3" d="M943.7,531.4v47c-1.1-0.4-2.3-0.8-3.7-1.2v-47C941.4,530.6,942.6,531,943.7,531.4"/>
					<path class="st4" d="M940.1,530.3v47c-1.3-0.4-2.7-0.7-4.2-1.1v-47C937.4,529.5,938.8,529.9,940.1,530.3"/>
					<path class="st5" d="M935.9,529.2v47c-1.6-0.4-3.2-0.7-5-1.1v-47C932.7,528.5,934.3,528.8,935.9,529.2"/>
					<path class="st6" d="M930.9,528.1v47c-1.9-0.4-3.9-0.8-6.1-1.1v-47C927,527.4,929,527.7,930.9,528.1"/>
					<path class="st7" d="M924.8,527v47c-2.4-0.4-4.9-0.8-7.6-1.2v-47C919.9,526.2,922.4,526.6,924.8,527"/>
					<path class="st8" d="M917.2,525.8v47c-3.1-0.4-6.3-0.8-9.7-1.2v-47C910.9,525,914.2,525.4,917.2,525.8"/>
					<path class="st9" d="M907.5,524.6v47c-3.9-0.5-8.1-0.9-12.4-1.3v-47C899.5,523.7,903.6,524.2,907.5,524.6"/>
					<path class="st10" d="M895.1,523.3v47c-5-0.5-10.2-0.9-15.7-1.3v-47C884.9,522.5,890.1,522.9,895.1,523.3"/>
					<path class="st11" d="M879.4,522.1v47c-6.2-0.4-12.8-0.8-19.6-1.1v-47C866.6,521.3,873.2,521.6,879.4,522.1"/>
					<path class="st12" d="M859.8,520.9v47c-7.6-0.4-15.4-0.6-23.5-0.8v-47C844.4,520.3,852.3,520.6,859.8,520.9"/>
					<path class="st13" d="M836.3,520.1v47c-8.7-0.2-17.8-0.3-27-0.4v-47C818.5,519.8,827.6,519.9,836.3,520.1"/>
					<path class="st14" d="M809.3,519.7v47c-0.8,0-1.7,0-2.5,0c-9,0-17.7,0.1-26.2,0.3v-47c8.5-0.2,17.3-0.3,26.2-0.3
						C807.6,519.7,808.4,519.7,809.3,519.7"/>
					<path class="st15" d="M780.5,520v47c-9.8,0.2-19.2,0.5-28.2,1v-47C761.3,520.6,770.7,520.2,780.5,520"/>
					<path class="st16" d="M752.3,521v47c-9.7,0.5-19,1.1-27.5,1.8v-47C733.3,522.1,742.6,521.5,752.3,521"/>
					<path class="st17" d="M724.8,522.8v47c-13.1,1.1-24.6,2.4-34.1,3.9v-47C700.2,525.2,711.7,523.8,724.8,522.8"/>
					<path class="st18" d="M690.7,526.7v47c-2.5,0.4-4.9,0.8-7.1,1.2v-47C685.9,527.5,688.2,527.1,690.7,526.7"/>
					<path class="st17" d="M683.7,527.9v47c-4.7,0.9-8.8,1.9-12,2.9v-47C674.9,529.8,678.9,528.8,683.7,527.9"/>
					<path class="st16" d="M671.6,530.8v47c-1.2,0.4-2.3,0.7-3.2,1.1v-47C669.4,531.6,670.4,531.2,671.6,530.8"/>
					<path class="st15" d="M668.4,531.9v47c-0.7,0.3-1.4,0.6-2,0.8v-47C667,532.5,667.7,532.2,668.4,531.9"/>
					<path class="st14" d="M666.4,532.8v47c-0.4,0.2-0.7,0.4-1.1,0.5v-47C665.7,533.1,666.1,533,666.4,532.8"/>
					<path class="st13" d="M665.4,533.3v47c-0.3,0.2-0.6,0.4-0.9,0.6v-47C664.8,533.7,665.1,533.5,665.4,533.3"/>
					<path class="st12" d="M664.5,533.9v47c-0.2,0.2-0.5,0.3-0.7,0.5v-47C664,534.2,664.2,534,664.5,533.9"/>
					<path class="st11" d="M663.8,534.4v47c-0.2,0.1-0.3,0.3-0.5,0.4v-47C663.5,534.6,663.6,534.5,663.8,534.4"/>
					<path class="st10" d="M663.3,534.8v47c-0.1,0.1-0.3,0.3-0.4,0.4v-47C663.1,535,663.2,534.9,663.3,534.8"/>
					<path class="st9" d="M662.9,535.2v47c-0.1,0.1-0.2,0.3-0.3,0.4v-47C662.7,535.5,662.8,535.3,662.9,535.2"/>
					<path class="st8" d="M662.6,535.6v47c-0.1,0.1-0.2,0.3-0.2,0.4v-47C662.5,535.9,662.6,535.7,662.6,535.6"/>
					<path class="st7" d="M662.4,536v47c-0.1,0.1-0.1,0.3-0.1,0.4v-47C662.3,536.3,662.4,536.1,662.4,536"/>
					<path class="st6" d="M662.3,536.4v47c0,0.1,0,0.3-0.1,0.4v-47C662.3,536.7,662.3,536.6,662.3,536.4"/>
					<path class="st5" d="M662.2,536.8v47c0,0,0,0,0,0.1L662.2,536.8C662.2,536.9,662.2,536.8,662.2,536.8"/>
				</g>
			</g>
			<g class="st0">
				<defs>
					<path id="SVGID_21_" class="st0" d="M806.8,601c-79.7,0-144.5-7.7-144.5-17.1v-47c0,9.5,64.8,17.1,144.5,17.1
						s144.5-7.7,144.5-17.1v47C951.2,593.3,886.4,601,806.8,601z"/>
				</defs>
				<clipPath id="SVGID_22_">
					<use xlink:href="#SVGID_21_"  style="overflow:visible;"/>
				</clipPath>
				<g class="st28">
					<path d="M951.2,536.9v47c0,0,0,0,0,0.1L951.2,536.9C951.2,536.9,951.2,536.9,951.2,536.9"/>
					<path d="M951.2,536.9v47c0,0.1,0,0.3-0.1,0.4v-47C951.2,537.2,951.2,537.1,951.2,536.9"/>
					<path d="M951.2,537.3v47c0,0.1-0.1,0.3-0.1,0.4v-47C951.1,537.6,951.2,537.5,951.2,537.3"/>
					<path d="M951.1,537.8v47c-0.1,0.1-0.1,0.3-0.2,0.4v-47C950.9,538,951,537.9,951.1,537.8"/>
					<path d="M950.8,538.2v47c-0.1,0.1-0.2,0.3-0.3,0.4v-47C950.7,538.4,950.8,538.3,950.8,538.2"/>
					<path d="M950.5,538.6v47c-0.1,0.1-0.2,0.3-0.4,0.4v-47C950.3,538.9,950.4,538.7,950.5,538.6"/>
					<path d="M950.2,539v47c-0.1,0.1-0.3,0.3-0.5,0.4v-47C949.8,539.3,950,539.1,950.2,539"/>
					<path d="M949.7,539.4v47c-0.2,0.2-0.4,0.3-0.7,0.5v-47C949.3,539.7,949.5,539.6,949.7,539.4"/>
					<path d="M949,539.9v47c-0.3,0.2-0.6,0.4-0.9,0.6v-47C948.4,540.3,948.7,540.1,949,539.9"/>
					<path d="M948.1,540.4v47c-0.3,0.2-0.7,0.4-1.1,0.5v-47C947.4,540.8,947.8,540.6,948.1,540.4"/>
					<path d="M947.1,541v47c-0.6,0.3-1.2,0.6-2,0.8v-47C945.8,541.6,946.5,541.3,947.1,541"/>
					<path d="M945.1,541.8v47c-1,0.4-2,0.8-3.2,1.1v-47C943.1,542.6,944.1,542.2,945.1,541.8"/>
					<path d="M941.9,543v47c-3.3,1-7.3,2-12.1,2.9v-47C934.6,544.9,938.6,544,941.9,543"/>
					<path d="M929.8,545.9v47c-2.2,0.4-4.6,0.8-7.1,1.2v-47C925.3,546.7,927.6,546.3,929.8,545.9"/>
					<path d="M922.8,547.1v47c-9.5,1.5-21,2.8-34.1,3.9v-47C901.8,549.9,913.3,548.6,922.8,547.1"/>
					<path d="M888.7,551v47c-8.6,0.7-17.8,1.3-27.5,1.8v-47C870.9,552.3,880.1,551.7,888.7,551"/>
					<path d="M861.2,552.8v47c-9,0.4-18.4,0.8-28.2,1v-47C842.8,553.5,852.2,553.2,861.2,552.8"/>
					<path d="M833,553.7v47c-8.5,0.2-17.3,0.3-26.2,0.3c-0.8,0-1.7,0-2.5,0v-47c0.8,0,1.7,0,2.5,0C815.7,554,824.5,553.9,833,553.7"
						/>
					<path d="M804.2,554v47c-9.2,0-18.3-0.1-27-0.4v-47C785.9,553.9,795,554,804.2,554"/>
					<path d="M777.2,553.7v47c-8.1-0.2-16-0.5-23.5-0.8v-47C761.2,553.2,769.1,553.5,777.2,553.7"/>
					<path d="M753.7,552.8v47c-6.8-0.3-13.3-0.7-19.6-1.1v-47C740.3,552.1,746.9,552.5,753.7,552.8"/>
					<path d="M734.1,551.7v47c-5.5-0.4-10.7-0.8-15.7-1.3v-47C723.4,550.9,728.6,551.3,734.1,551.7"/>
					<path d="M718.4,550.4v47c-4.3-0.4-8.5-0.8-12.4-1.3v-47C709.9,549.6,714.1,550,718.4,550.4"/>
					<path d="M706,549.2v47c-3.4-0.4-6.6-0.8-9.7-1.2v-47C699.3,548.4,702.6,548.8,706,549.2"/>
					<path d="M696.3,547.9v47c-2.7-0.4-5.2-0.8-7.6-1.2v-47C691.1,547.2,693.6,547.5,696.3,547.9"/>
					<path d="M688.7,546.8v47c-2.1-0.4-4.2-0.7-6.1-1.1v-47C684.5,546,686.5,546.4,688.7,546.8"/>
					<path d="M682.6,545.6v47c-1.8-0.4-3.4-0.7-5-1.1v-47C679.2,544.9,680.8,545.3,682.6,545.6"/>
					<path d="M677.6,544.6v47c-1.5-0.4-2.9-0.7-4.2-1.1v-47C674.7,543.9,676.1,544.2,677.6,544.6"/>
					<path d="M673.4,543.5v47c-1.3-0.4-2.6-0.8-3.7-1.2v-47C670.9,542.7,672.1,543.1,673.4,543.5"/>
					<path d="M669.8,542.3v47c-4.9-1.7-7.5-3.6-7.5-5.5v-47C662.2,538.8,664.9,540.6,669.8,542.3"/>
				</g>
			</g>
			<g>
				<path class="st13" d="M806.8,519.4c80.2,0,145.5,7.8,145.5,17.5s-65.3,17.5-145.5,17.5c-80.2,0-145.5-7.8-145.5-17.5
					S726.5,519.4,806.8,519.4z M806.8,554c79.7,0,144.5-7.7,144.5-17.1s-64.8-17.1-144.5-17.1c-79.7,0-144.5,7.7-144.5,17.1
					S727.1,554,806.8,554"/>
			</g>
			<g>
				<path d="M806.8,519.7c79.7,0,144.5,7.7,144.5,17.1c0,9.5-64.8,17.1-144.5,17.1s-144.5-7.7-144.5-17.1
					C662.2,527.4,727.1,519.7,806.8,519.7z"/>
			</g>
			<g class="st0">
				<defs>
					<path id="SVGID_23_" class="st0" d="M952.3,536.9v47c0,9.6-65.3,17.5-145.5,17.5c-80.2,0-145.5-7.8-145.5-17.5v-47
						c0,9.6,65.3,17.5,145.5,17.5C887,554.4,952.3,546.5,952.3,536.9z"/>
				</defs>
				<clipPath id="SVGID_24_">
					<use xlink:href="#SVGID_23_"  style="overflow:visible;"/>
				</clipPath>
				<g class="st29">
					<path class="st5" d="M952.3,536.9v47c0,0,0,0,0,0.1L952.3,536.9C952.3,536.9,952.3,536.9,952.3,536.9"/>
					<path class="st6" d="M952.3,536.9v47c0,0.1,0,0.3-0.1,0.4v-47C952.2,537.2,952.2,537.1,952.3,536.9"/>
					<path class="st7" d="M952.2,537.4v47c0,0.1-0.1,0.3-0.1,0.4v-47C952.1,537.6,952.2,537.5,952.2,537.4"/>
					<path class="st8" d="M952.1,537.8v47c-0.1,0.1-0.1,0.3-0.2,0.4v-47C951.9,538.1,952,537.9,952.1,537.8"/>
					<path class="st9" d="M951.8,538.2v47c-0.1,0.1-0.2,0.3-0.3,0.4v-47C951.6,538.5,951.8,538.3,951.8,538.2"/>
					<path class="st10" d="M951.5,538.6v47c-0.1,0.1-0.3,0.3-0.4,0.4v-47C951.3,538.9,951.4,538.8,951.5,538.6"/>
					<path class="st11" d="M951.1,539.1v47c-0.1,0.1-0.3,0.3-0.5,0.4v-47C950.8,539.4,951,539.2,951.1,539.1"/>
					<path class="st12" d="M950.6,539.5v47c-0.2,0.2-0.4,0.3-0.7,0.5v-47C950.2,539.8,950.4,539.7,950.6,539.5"/>
					<path class="st13" d="M949.9,540v47c-0.3,0.2-0.6,0.4-0.9,0.6v-47C949.4,540.4,949.7,540.2,949.9,540"/>
					<path class="st14" d="M949,540.6v47c-0.3,0.2-0.7,0.4-1.1,0.6v-47C948.3,540.9,948.7,540.7,949,540.6"/>
					<path class="st15" d="M947.9,541.1v47c-0.6,0.3-1.3,0.6-2,0.9v-47C946.7,541.7,947.3,541.4,947.9,541.1"/>
					<path class="st16" d="M945.9,542v47c-1,0.4-2.1,0.8-3.3,1.2v-47C943.8,542.8,944.9,542.4,945.9,542"/>
					<path class="st17" d="M942.6,543.1v47c-3.3,1-7.4,2-12.2,2.9v-47C935.2,545.2,939.3,544.2,942.6,543.1"/>
					<path class="st18" d="M930.5,546.1v47c-2.3,0.4-4.7,0.9-7.2,1.3v-47C925.8,546.9,928.2,546.5,930.5,546.1"/>
					<path class="st17" d="M923.2,547.4v47c-9.6,1.5-21.4,2.9-34.7,4v-47C901.8,550.2,913.6,548.9,923.2,547.4"/>
					<path class="st16" d="M888.5,551.3v47c-8.6,0.7-17.8,1.3-27.6,1.8v-47C870.7,552.6,880,552,888.5,551.3"/>
					<path class="st15" d="M861,553.1v47c-9,0.4-18.4,0.8-28.1,1v-47C842.6,553.9,852,553.5,861,553.1"/>
					<path class="st14" d="M832.8,554.1v47c-8.5,0.2-17.2,0.3-26.1,0.3c-0.8,0-1.7,0-2.5,0v-47c0.8,0,1.7,0,2.5,0
						C815.7,554.4,824.4,554.3,832.8,554.1"/>
					<path class="st13" d="M804.2,554.4v47c-9.2,0-18.2-0.1-26.9-0.4v-47C786.1,554.2,795,554.4,804.2,554.4"/>
					<path class="st12" d="M777.3,554v47c-8.1-0.2-15.9-0.5-23.5-0.8v-47C761.4,553.5,769.3,553.8,777.3,554"/>
					<path class="st11" d="M753.9,553.2v47c-6.8-0.3-13.3-0.7-19.6-1.1v-47C740.6,552.5,747.1,552.9,753.9,553.2"/>
					<path class="st10" d="M734.3,552v47c-5.5-0.4-10.8-0.8-15.8-1.3v-47C723.5,551.2,728.8,551.7,734.3,552"/>
					<path class="st9" d="M718.5,550.8v47c-4.4-0.4-8.5-0.8-12.5-1.3v-47C710,549.9,714.1,550.4,718.5,550.8"/>
					<path class="st8" d="M706,549.5v47c-3.5-0.4-6.8-0.8-9.9-1.3v-47C699.2,548.7,702.5,549.1,706,549.5"/>
					<path class="st7" d="M696.1,548.2v47c-2.7-0.4-5.3-0.8-7.7-1.2v-47C690.8,547.4,693.4,547.8,696.1,548.2"/>
					<path class="st6" d="M688.4,547v47c-2.2-0.4-4.3-0.7-6.2-1.1v-47C684.1,546.3,686.2,546.7,688.4,547"/>
					<path class="st5" d="M682.1,545.9v47c-1.8-0.4-3.5-0.7-5.1-1.1v-47C678.6,545.2,680.3,545.5,682.1,545.9"/>
					<path class="st4" d="M677,544.8v47c-1.5-0.4-2.9-0.7-4.3-1.1v-47C674.1,544.1,675.5,544.4,677,544.8"/>
					<path class="st3" d="M672.8,543.7v47c-1.4-0.4-2.7-0.8-3.8-1.2v-47C670.1,542.9,671.4,543.3,672.8,543.7"/>
					<path class="st2" d="M669,542.5v47c-5-1.8-7.7-3.7-7.7-5.6v-47C661.2,538.9,664,540.7,669,542.5"/>
				</g>
			</g>
		</g>
	</g>
</g>
</svg>
