<?xml version="1.0" encoding="utf-8"?>
<!-- Generator: Adobe Illustrator 19.2.1, SVG Export Plug-In . SVG Version: 6.00 Build 0)  -->
<svg version="1.1" id="Ebene_1" xmlns="http://www.w3.org/2000/svg" xmlns:xlink="http://www.w3.org/1999/xlink" x="0px" y="0px"
	 viewBox="0 0 1920 1080" style="enable-background:new 0 0 1920 1080;" xml:space="preserve">
<style type="text/css">
	.st0{fill:#333333;}
	.st1{fill:#FF2D55;}
	.st2{fill:#FF3B30;}
</style>
<path class="st0" d="M887.3,707.9H619.8c-6.6,0-12-5.4-12-12V584.4c0-6.6,5.4-12,12-12h267.5c6.6,0,12,5.4,12,12v111.5
	C899.3,702.5,893.9,707.9,887.3,707.9z"/>
<path class="st0" d="M1291.3,707.9H935.5c-6.6,0-12-5.4-12-12V584.4c0-6.6,5.4-12,12-12h355.8c6.6,0,12,5.4,12,12v111.5
	C1303.3,702.5,1297.9,707.9,1291.3,707.9z"/>
<path class="st0" d="M975.6,866.8H619.8c-6.6,0-12-5.4-12-12V743.3c0-6.6,5.4-12,12-12h355.8c6.6,0,12,5.4,12,12v111.5
	C987.6,861.4,982.2,866.8,975.6,866.8z"/>
<path class="st0" d="M1291.3,866.8h-267.5c-6.6,0-12-5.4-12-12V743.3c0-6.6,5.4-12,12-12h267.5c6.6,0,12,5.4,12,12v111.5
	C1303.3,861.4,1297.9,866.8,1291.3,866.8z"/>
<path class="st1" d="M1100.9,351.2c2.9,11.6,4.5,23.7,4.5,36.2c0,81.2-65.9,147.1-147.1,147.1s-147.1-65.9-147.1-147.1
	c0-12.5,1.6-24.6,4.5-36.2c-6.2,16.6-9.6,34.5-9.6,53.3c0,84.1,68.1,152.2,152.2,152.2s152.2-68.1,152.2-152.2
	C1110.4,385.8,1107,367.8,1100.9,351.2z"/>
<path class="st2" d="M1072.7,418.6"/>
<path class="st1" d="M920.8,525.6c-33.2-12.1-60.8-35.6-74.9-63.8c-7.9-15.7-12.4-34.7-12.4-51.8c0-23,9-45,36.5-88.9
	c20.4-32.7,23.9-38.6,29.9-51.2c8-16.7,10.6-26.6,10.8-40.6c0.2-13.4-1.8-21.3-8-31.7c-4.4-7.4-14.2-18.5-18.2-20.5
	c-6.5-3.4-7.9-8-3.2-11c7.3-4.8,27.3-1.8,45.7,7c20.8,9.9,36.1,24,46.1,42.5c7.7,14.3,10.8,25.3,16,56.6
	c5.8,34.7,11.5,45.8,23.1,44.4c6.2-0.7,10-3,12.6-7.6c4.1-7.3,2.4-17.4-6-34c-6.8-13.6-6.4-17.7,1.6-15.6c4.1,1.1,17.6,12.1,26.9,22
	c23.3,24.7,34.9,47.2,40.4,78.4c2.9,16.4,3.2,43.5,0.5,57.7c-3.3,17.9-10.1,34.8-19.7,49.3c-10.7,16.1-33.1,36.5-49.4,45
	c-7.4,3.8-9.9,4.1-13.5,1.2c-4.5-3.5-3.5-6,6.4-16.5c14.9-15.8,22.5-27,26.9-39.8c6.8-19.6,3.4-47-8-64.4
	c-4.7-7.2-11.6-13.6-14.8-13.6c-1.7,0-1.4,2.3,1.7,13.9c1.1,4.1,2,9,2,11.1c0,10.6-15,18.3-28.2,14.5c-10.7-3.1-15.5-12.9-14-28.9
	c0.4-5,0.8-14,0.9-20c0.1-10.7,0-11.2-3.4-17.9c-6.6-13-21.8-26.4-30-26.4c-3.5,0-3.8,0.2-3.8,2.8c0,1.7,1,3.7,2.6,5.2
	c8.5,7.9,10.1,24.2,3.8,38.5c-3.9,8.9-8.3,13.9-23.3,26.6c-19.7,16.8-26.1,24.7-30,37.7c-1.8,6-2,8.4-1.5,19.4
	c0.9,18.4,4.6,30.7,13.4,43.6c6.7,9.9,14.6,16.2,25.4,20.2c5.2,1.9,5.7,2.4,5.7,5c0,3-2.3,5-5.7,4.9
	C930.6,528.8,925.8,527.4,920.8,525.6L920.8,525.6z"/>
</svg>
