<?xml version="1.0" encoding="utf-8"?>
<!-- Generator: Adobe Illustrator 19.2.1, SVG Export Plug-In . SVG Version: 6.00 Build 0)  -->
<svg version="1.1" id="Ebene_1" xmlns="http://www.w3.org/2000/svg" xmlns:xlink="http://www.w3.org/1999/xlink" x="0px" y="0px"
	 viewBox="0 0 1920 1080" style="enable-background:new 0 0 1920 1080;" xml:space="preserve">
<style type="text/css">
	.st0{enable-background:new    ;}
	.st1{fill:#333333;}
	.st2{fill:#4CD964;}
	.st3{fill:none;stroke:#666666;stroke-width:0.75;stroke-miterlimit:10;}
	.st4{fill:none;}
	.st5{fill:#007AFF;}
	.st6{font-family:'MyriadPro-Regular';}
	.st7{font-size:46px;}
</style>
<g>
	<g>
		<g class="st0">
			<g>
				<rect x="1168" y="296.2" width="256.1" height="41"/>
			</g>
			<g>
				<path d="M1435.6,302.8v41c0-3.6-5.2-6.6-11.5-6.6v-41C1430.4,296.2,1435.6,299.1,1435.6,302.8z"/>
			</g>
			<g>
				<path d="M1168,296.2v41c-6.3,0-11.5,3-11.5,6.6v-41C1156.5,299.1,1161.7,296.2,1168,296.2z"/>
			</g>
			<g>
				<path class="st1" d="M1156.5,667.6c0-0.1,0-0.2,0-0.3v-41c0,0.1,0,0.2,0,0.3c0,1.2,0,2.9,0,4.2c0,1.3,0,3.1,0,4.4
					c0,1.4,0,3.2,0,4.6c0,1.4,0,3.3,0,4.7c0,1.4,0,3.3,0,4.7c0,1.4,0,3.2,0,4.6c0,1.3,0,3.1,0,4.4c0,1.3,0,2.9,0,4.2
					c0,0.2,0,0.4,0,0.6c0,0.2,0,0.5,0,0.6c0,0.2,0,0.5,0,0.7c0,0.2,0,0.5,0,0.7c0,0.2,0,0.5,0,0.7c0,0.2,0,0.5,0,0.7
					c0,0.2,0,0.5,0,0.7C1156.5,667.1,1156.5,667.4,1156.5,667.6z"/>
			</g>
			<g>
				<path class="st1" d="M1156.5,667.6c0-0.2,0-0.4,0-0.6c0-0.2,0-0.5,0-0.7c0-0.2,0-0.5,0-0.7c0-0.2,0-0.5,0-0.7c0-0.2,0-0.5,0-0.7
					c0-0.2,0-0.5,0-0.7c0-0.2,0-0.5,0-0.6c0-0.2,0-0.4,0-0.6c0-1.3,0-2.9,0-4.2c0-1.3,0-3.1,0-4.4c0-1.4,0-3.2,0-4.6
					c0-1.4,0-3.3,0-4.7c0-1.4,0-3.3,0-4.7c0-1.4,0-3.2,0-4.6c0-1.3,0-3.1,0-4.4c0-1.2,0-2.9,0-4.2c0.3,3.5,5.3,6.2,11.5,6.2v41
					C1161.9,673.8,1156.8,671.1,1156.5,667.6z"/>
			</g>
			<g>
				<path class="st1" d="M1424.1,296.2c6.3,0,11.5,3,11.5,6.6v323.5c0,3.6-5.2,6.6-11.5,6.6H1168c-6.3,0-11.5-3-11.5-6.6V302.8
					c0-3.6,5.2-6.6,11.5-6.6H1424.1z"/>
			</g>
			<g>
				<rect x="1168" y="632.9" class="st1" width="256.1" height="41"/>
			</g>
			<g>
				<path class="st1" d="M1435.6,626.3v41c0,3.6-5.2,6.6-11.5,6.6v-41C1430.4,632.9,1435.6,629.9,1435.6,626.3z"/>
			</g>
			<g>
				<rect x="1168" y="633.4" width="256.1" height="41"/>
			</g>
			<g>
				<path d="M1424.1,295.6c6.9,0,12.5,3.2,12.5,7.2v323.5c0,4-5.6,7.2-12.5,7.2H1168c-6.9,0-12.5-3.2-12.5-7.2V302.8
					c0-4,5.6-7.2,12.5-7.2H1424.1z M1435.6,626.3V302.8c0-3.6-5.2-6.6-11.5-6.6H1168c-6.3,0-11.5,3-11.5,6.6v323.5
					c0,3.6,5.2,6.6,11.5,6.6h256.1C1430.4,632.9,1435.6,629.9,1435.6,626.3"/>
			</g>
			<g>
				<path d="M1436.6,626.3v41c0,4-5.6,7.2-12.5,7.2v-41C1430.9,633.4,1436.6,630.2,1436.6,626.3z"/>
			</g>
			<g>
				<path d="M1168,633.4v41c-6.9,0-12.5-3.2-12.5-7.2v-41C1155.5,630.2,1161.1,633.4,1168,633.4z"/>
			</g>
		</g>
	</g>
</g>
<ellipse cx="1170.5" cy="310.1" rx="3.9" ry="3.9"/>
<ellipse cx="1423.3" cy="310.1" rx="3.9" ry="3.9"/>
<ellipse cx="1170.5" cy="485" rx="3.9" ry="3.9"/>
<ellipse cx="1423.3" cy="485" rx="3.9" ry="3.9"/>
<ellipse cx="1170.5" cy="617.3" rx="3.9" ry="3.9"/>
<ellipse cx="1423.3" cy="617.3" rx="3.9" ry="3.9"/>
<ellipse class="st2" cx="1380" cy="659.6" rx="4.3" ry="4.4"/>
<path class="st1" d="M1255.9,671.6L1255.9,671.6c-1.6,0-2.9-1.3-2.9-2.9v-29.5c0-1.6,1.3-2.9,2.9-2.9l0,0c1.6,0,2.9,1.3,2.9,2.9
	v29.5C1258.9,670.2,1257.6,671.6,1255.9,671.6z"/>
<path class="st1" d="M1264.3,671.5L1264.3,671.5c-1.6,0-2.9-1.3-2.9-2.9V639c0-1.6,1.3-2.9,2.9-2.9l0,0c1.6,0,2.9,1.3,2.9,2.9v29.5
	C1267.2,670.2,1265.9,671.5,1264.3,671.5z"/>
<path class="st1" d="M1272.6,671.6L1272.6,671.6c-1.6,0-2.9-1.3-2.9-2.9v-29.5c0-1.6,1.3-2.9,2.9-2.9h0c1.6,0,2.9,1.3,2.9,2.9v29.5
	C1275.6,670.3,1274.3,671.6,1272.6,671.6z"/>
<path class="st1" d="M1281,671.5L1281,671.5c-1.6,0-2.9-1.3-2.9-2.9V639c0-1.6,1.3-2.9,2.9-2.9l0,0c1.6,0,2.9,1.3,2.9,2.9v29.5
	C1283.9,670.2,1282.6,671.5,1281,671.5z"/>
<path class="st1" d="M1289.3,671.5L1289.3,671.5c-1.6,0-2.9-1.3-2.9-2.9V639c0-1.6,1.3-2.9,2.9-2.9l0,0c1.6,0,2.9,1.3,2.9,2.9v29.5
	C1292.3,670.2,1291,671.5,1289.3,671.5z"/>
<path class="st1" d="M1297.7,671.4L1297.7,671.4c-1.6,0-2.9-1.3-2.9-2.9v-29.5c0-1.6,1.3-2.9,2.9-2.9l0,0c1.6,0,2.9,1.3,2.9,2.9
	v29.5C1300.6,670.1,1299.3,671.4,1297.7,671.4z"/>
<path class="st1" d="M1306,671.5L1306,671.5c-1.6,0-2.9-1.3-2.9-2.9v-29.5c0-1.6,1.3-2.9,2.9-2.9l0,0c1.6,0,2.9,1.3,2.9,2.9v29.5
	C1309,670.2,1307.6,671.5,1306,671.5z"/>
<path class="st1" d="M1314.4,671.5L1314.4,671.5c-1.6,0-2.9-1.3-2.9-2.9V639c0-1.6,1.3-2.9,2.9-2.9l0,0c1.6,0,2.9,1.3,2.9,2.9v29.5
	C1317.3,670.1,1316,671.5,1314.4,671.5z"/>
<path class="st1" d="M1322.7,671.7L1322.7,671.7c-1.6,0-2.9-1.3-2.9-2.9v-29.5c0-1.6,1.3-2.9,2.9-2.9h0c1.6,0,2.9,1.3,2.9,2.9v29.5
	C1325.7,670.3,1324.3,671.7,1322.7,671.7z"/>
<path class="st1" d="M1331.1,671.6L1331.1,671.6c-1.6,0-2.9-1.3-2.9-2.9v-29.5c0-1.6,1.3-2.9,2.9-2.9l0,0c1.6,0,2.9,1.3,2.9,2.9
	v29.5C1334,670.2,1332.7,671.6,1331.1,671.6z"/>
<path class="st1" d="M1339.4,671.5L1339.4,671.5c-1.6,0-2.9-1.3-2.9-2.9V639c0-1.6,1.3-2.9,2.9-2.9l0,0c1.6,0,2.9,1.3,2.9,2.9v29.5
	C1342.3,670.1,1341,671.5,1339.4,671.5z"/>
<path class="st1" d="M1347.7,671.4L1347.7,671.4c-1.6,0-2.9-1.3-2.9-2.9v-29.5c0-1.6,1.3-2.9,2.9-2.9l0,0c1.6,0,2.9,1.3,2.9,2.9
	v29.5C1350.7,670,1349.4,671.4,1347.7,671.4z"/>
<g>
	<g>
		<g class="st0">
			<g>
				<rect x="1168.4" y="254.1" width="256.1" height="41"/>
			</g>
			<g>
				<path d="M1435.9,260.7v41c0-3.6-5.2-6.6-11.5-6.6v-41C1430.7,254.1,1435.9,257.1,1435.9,260.7z"/>
			</g>
			<g>
				<path d="M1168.4,254.1v41c-6.3,0-11.5,3-11.5,6.6v-41C1156.9,257.1,1162,254.1,1168.4,254.1z"/>
			</g>
			<g>
				<path class="st1" d="M1168.4,590.8v41c-6.3,0-11.5-3-11.5-6.6v-41C1156.9,587.8,1162,590.8,1168.4,590.8z"/>
			</g>
			<g>
				<path class="st1" d="M1424.4,254.1c6.3,0,11.5,3,11.5,6.6v323.5c0,3.6-5.2,6.6-11.5,6.6h-256.1c-6.3,0-11.5-3-11.5-6.6V260.7
					c0-3.6,5.2-6.6,11.5-6.6H1424.4z"/>
			</g>
			<g>
				<rect x="1168.4" y="590.8" class="st1" width="256.1" height="41"/>
			</g>
			<g>
				<path class="st1" d="M1435.9,584.2v41c0,3.6-5.2,6.6-11.5,6.6v-41C1430.7,590.8,1435.9,587.8,1435.9,584.2z"/>
			</g>
			<g>
				<rect x="1168.4" y="591.4" width="256.1" height="41"/>
			</g>
			<g>
				<path d="M1424.4,253.5c6.9,0,12.5,3.2,12.5,7.2v323.5c0,4-5.6,7.2-12.5,7.2h-256.1c-6.9,0-12.5-3.2-12.5-7.2V260.7
					c0-4,5.6-7.2,12.5-7.2H1424.4z M1435.9,584.2V260.7c0-3.6-5.2-6.6-11.5-6.6h-256.1c-6.3,0-11.5,3-11.5,6.6v323.5
					c0,3.6,5.2,6.6,11.5,6.6h256.1C1430.7,590.8,1435.9,587.8,1435.9,584.2"/>
			</g>
			<g>
				<path d="M1436.9,584.2v41c0,4-5.6,7.2-12.5,7.2v-41C1431.3,591.4,1436.9,588.1,1436.9,584.2z"/>
			</g>
			<g>
				<path d="M1168.4,591.4v41c-6.9,0-12.5-3.2-12.5-7.2v-41C1155.9,588.1,1161.5,591.4,1168.4,591.4z"/>
			</g>
		</g>
	</g>
</g>
<ellipse cx="1170.9" cy="268" rx="3.9" ry="3.9"/>
<ellipse cx="1423.7" cy="268" rx="3.9" ry="3.9"/>
<ellipse cx="1170.9" cy="442.9" rx="3.9" ry="3.9"/>
<ellipse cx="1423.7" cy="442.9" rx="3.9" ry="3.9"/>
<ellipse cx="1170.9" cy="575.2" rx="3.9" ry="3.9"/>
<ellipse cx="1423.7" cy="575.2" rx="3.9" ry="3.9"/>
<ellipse class="st2" cx="1380.3" cy="617.5" rx="4.3" ry="4.4"/>
<path class="st1" d="M1256.3,629.5L1256.3,629.5c-1.6,0-2.9-1.3-2.9-2.9V597c0-1.6,1.3-2.9,2.9-2.9l0,0c1.6,0,2.9,1.3,2.9,2.9v29.5
	C1259.3,628.2,1257.9,629.5,1256.3,629.5z"/>
<path class="st1" d="M1264.7,629.4L1264.7,629.4c-1.6,0-2.9-1.3-2.9-2.9v-29.5c0-1.6,1.3-2.9,2.9-2.9l0,0c1.6,0,2.9,1.3,2.9,2.9
	v29.5C1267.6,628.1,1266.3,629.4,1264.7,629.4z"/>
<path class="st1" d="M1273,629.5L1273,629.5c-1.6,0-2.9-1.3-2.9-2.9v-29.5c0-1.6,1.3-2.9,2.9-2.9l0,0c1.6,0,2.9,1.3,2.9,2.9v29.5
	C1275.9,628.2,1274.6,629.5,1273,629.5z"/>
<path class="st1" d="M1281.3,629.5L1281.3,629.5c-1.6,0-2.9-1.3-2.9-2.9V597c0-1.6,1.3-2.9,2.9-2.9l0,0c1.6,0,2.9,1.3,2.9,2.9v29.5
	C1284.3,628.1,1283,629.5,1281.3,629.5z"/>
<path class="st1" d="M1289.7,629.4L1289.7,629.4c-1.6,0-2.9-1.3-2.9-2.9v-29.5c0-1.6,1.3-2.9,2.9-2.9l0,0c1.6,0,2.9,1.3,2.9,2.9
	v29.5C1292.6,628.1,1291.3,629.4,1289.7,629.4z"/>
<path class="st1" d="M1298,629.3L1298,629.3c-1.6,0-2.9-1.3-2.9-2.9v-29.5c0-1.6,1.3-2.9,2.9-2.9l0,0c1.6,0,2.9,1.3,2.9,2.9v29.5
	C1301,628,1299.7,629.3,1298,629.3z"/>
<path class="st1" d="M1306.4,629.5L1306.4,629.5c-1.6,0-2.9-1.3-2.9-2.9V597c0-1.6,1.3-2.9,2.9-2.9l0,0c1.6,0,2.9,1.3,2.9,2.9v29.5
	C1309.3,628.1,1308,629.5,1306.4,629.5z"/>
<path class="st1" d="M1314.7,629.4L1314.7,629.4c-1.6,0-2.9-1.3-2.9-2.9v-29.5c0-1.6,1.3-2.9,2.9-2.9h0c1.6,0,2.9,1.3,2.9,2.9v29.5
	C1317.7,628.1,1316.3,629.4,1314.7,629.4z"/>
<path class="st1" d="M1323.1,629.6L1323.1,629.6c-1.6,0-2.9-1.3-2.9-2.9v-29.5c0-1.6,1.3-2.9,2.9-2.9l0,0c1.6,0,2.9,1.3,2.9,2.9
	v29.5C1326,628.3,1324.7,629.6,1323.1,629.6z"/>
<path class="st1" d="M1331.4,629.5L1331.4,629.5c-1.6,0-2.9-1.3-2.9-2.9V597c0-1.6,1.3-2.9,2.9-2.9l0,0c1.6,0,2.9,1.3,2.9,2.9v29.5
	C1334.4,628.2,1333,629.5,1331.4,629.5z"/>
<path class="st1" d="M1339.8,629.4L1339.8,629.4c-1.6,0-2.9-1.3-2.9-2.9v-29.5c0-1.6,1.3-2.9,2.9-2.9l0,0c1.6,0,2.9,1.3,2.9,2.9
	v29.5C1342.7,628.1,1341.4,629.4,1339.8,629.4z"/>
<path class="st1" d="M1348.1,629.3L1348.1,629.3c-1.6,0-2.9-1.3-2.9-2.9v-29.5c0-1.6,1.3-2.9,2.9-2.9l0,0c1.6,0,2.9,1.3,2.9,2.9
	v29.5C1351.1,628,1349.7,629.3,1348.1,629.3z"/>
<g>
	<g>
		<g class="st0">
			<g>
				<rect x="1168.4" y="211.5" width="256.1" height="41"/>
			</g>
			<g>
				<path d="M1435.9,218.1v41c0-3.6-5.2-6.6-11.5-6.6v-41C1430.7,211.5,1435.9,214.5,1435.9,218.1z"/>
			</g>
			<g>
				<path d="M1168.4,211.5v41c-6.3,0-11.5,3-11.5,6.6v-41C1156.9,214.5,1162,211.5,1168.4,211.5z"/>
			</g>
			<g>
				<path class="st1" d="M1168.4,548.2v41c-6.3,0-11.5-3-11.5-6.6v-41C1156.9,545.3,1162,548.2,1168.4,548.2z"/>
			</g>
			<g>
				<path class="st1" d="M1424.4,211.5c6.3,0,11.5,3,11.5,6.6v323.5c0,3.6-5.2,6.6-11.5,6.6h-256.1c-6.3,0-11.5-3-11.5-6.6V218.1
					c0-3.6,5.2-6.6,11.5-6.6H1424.4z"/>
			</g>
			<g>
				<rect x="1168.4" y="548.2" class="st1" width="256.1" height="41"/>
			</g>
			<g>
				<path class="st1" d="M1435.9,541.6v41c0,3.6-5.2,6.6-11.5,6.6v-41C1430.7,548.2,1435.9,545.3,1435.9,541.6z"/>
			</g>
			<g>
				<rect x="1168.4" y="548.8" width="256.1" height="41"/>
			</g>
			<g>
				<path d="M1424.4,211c6.9,0,12.5,3.2,12.5,7.2v323.5c0,4-5.6,7.2-12.5,7.2h-256.1c-6.9,0-12.5-3.2-12.5-7.2V218.1
					c0-3.9,5.6-7.2,12.5-7.2H1424.4z M1435.9,541.6V218.1c0-3.6-5.2-6.6-11.5-6.6h-256.1c-6.3,0-11.5,3-11.5,6.6v323.5
					c0,3.6,5.2,6.6,11.5,6.6h256.1C1430.7,548.2,1435.9,545.3,1435.9,541.6"/>
			</g>
			<g>
				<path d="M1436.9,541.6v41c0,4-5.6,7.2-12.5,7.2v-41C1431.3,548.8,1436.9,545.6,1436.9,541.6z"/>
			</g>
			<g>
				<path d="M1168.4,548.8v41c-6.9,0-12.5-3.2-12.5-7.2v-41C1155.9,545.6,1161.5,548.8,1168.4,548.8z"/>
			</g>
		</g>
	</g>
</g>
<ellipse cx="1170.9" cy="225.5" rx="3.9" ry="3.9"/>
<ellipse cx="1423.7" cy="225.5" rx="3.9" ry="3.9"/>
<ellipse cx="1170.9" cy="400.4" rx="3.9" ry="3.9"/>
<ellipse cx="1423.7" cy="400.4" rx="3.9" ry="3.9"/>
<ellipse cx="1170.9" cy="532.6" rx="3.9" ry="3.9"/>
<ellipse cx="1423.7" cy="532.6" rx="3.9" ry="3.9"/>
<ellipse class="st2" cx="1380.3" cy="574.9" rx="4.3" ry="4.4"/>
<path class="st1" d="M1256.3,586.9L1256.3,586.9c-1.6,0-2.9-1.3-2.9-2.9v-29.5c0-1.6,1.3-2.9,2.9-2.9l0,0c1.6,0,2.9,1.3,2.9,2.9V584
	C1259.3,585.6,1257.9,586.9,1256.3,586.9z"/>
<path class="st1" d="M1264.7,586.8L1264.7,586.8c-1.6,0-2.9-1.3-2.9-2.9v-29.5c0-1.6,1.3-2.9,2.9-2.9l0,0c1.6,0,2.9,1.3,2.9,2.9
	v29.5C1267.6,585.5,1266.3,586.8,1264.7,586.8z"/>
<path class="st1" d="M1273,587L1273,587c-1.6,0-2.9-1.3-2.9-2.9v-29.5c0-1.6,1.3-2.9,2.9-2.9l0,0c1.6,0,2.9,1.3,2.9,2.9V584
	C1275.9,585.7,1274.6,587,1273,587z"/>
<path class="st1" d="M1281.3,586.9L1281.3,586.9c-1.6,0-2.9-1.3-2.9-2.9v-29.5c0-1.6,1.3-2.9,2.9-2.9l0,0c1.6,0,2.9,1.3,2.9,2.9
	v29.5C1284.3,585.6,1283,586.9,1281.3,586.9z"/>
<path class="st1" d="M1289.7,586.9L1289.7,586.9c-1.6,0-2.9-1.3-2.9-2.9v-29.5c0-1.6,1.3-2.9,2.9-2.9l0,0c1.6,0,2.9,1.3,2.9,2.9
	v29.5C1292.6,585.5,1291.3,586.9,1289.7,586.9z"/>
<path class="st1" d="M1298,586.8L1298,586.8c-1.6,0-2.9-1.3-2.9-2.9v-29.5c0-1.6,1.3-2.9,2.9-2.9l0,0c1.6,0,2.9,1.3,2.9,2.9v29.5
	C1301,585.5,1299.7,586.8,1298,586.8z"/>
<path class="st1" d="M1306.4,586.9L1306.4,586.9c-1.6,0-2.9-1.3-2.9-2.9v-29.5c0-1.6,1.3-2.9,2.9-2.9l0,0c1.6,0,2.9,1.3,2.9,2.9V584
	C1309.3,585.6,1308,586.9,1306.4,586.9z"/>
<path class="st1" d="M1314.7,586.8L1314.7,586.8c-1.6,0-2.9-1.3-2.9-2.9v-29.5c0-1.6,1.3-2.9,2.9-2.9h0c1.6,0,2.9,1.3,2.9,2.9v29.5
	C1317.7,585.5,1316.3,586.8,1314.7,586.8z"/>
<path class="st1" d="M1323.1,587L1323.1,587c-1.6,0-2.9-1.3-2.9-2.9v-29.5c0-1.6,1.3-2.9,2.9-2.9l0,0c1.6,0,2.9,1.3,2.9,2.9v29.5
	C1326,585.7,1324.7,587,1323.1,587z"/>
<path class="st1" d="M1331.4,586.9L1331.4,586.9c-1.6,0-2.9-1.3-2.9-2.9v-29.5c0-1.6,1.3-2.9,2.9-2.9l0,0c1.6,0,2.9,1.3,2.9,2.9V584
	C1334.4,585.6,1333,586.9,1331.4,586.9z"/>
<path class="st1" d="M1339.8,586.8L1339.8,586.8c-1.6,0-2.9-1.3-2.9-2.9v-29.5c0-1.6,1.3-2.9,2.9-2.9l0,0c1.6,0,2.9,1.3,2.9,2.9
	v29.5C1342.7,585.5,1341.4,586.8,1339.8,586.8z"/>
<path class="st1" d="M1348.1,586.7L1348.1,586.7c-1.6,0-2.9-1.3-2.9-2.9v-29.5c0-1.6,1.3-2.9,2.9-2.9l0,0c1.6,0,2.9,1.3,2.9,2.9
	v29.5C1351.1,585.4,1349.7,586.7,1348.1,586.7z"/>
<g>
	<g>
		<g class="st0">
			<g>
				<rect x="1168.4" y="169.2" width="256.1" height="41"/>
			</g>
			<g>
				<path d="M1435.9,175.8v41c0-3.6-5.2-6.6-11.5-6.6v-41C1430.7,169.2,1435.9,172.1,1435.9,175.8z"/>
			</g>
			<g>
				<path d="M1168.4,169.2v41c-6.3,0-11.5,3-11.5,6.6v-41C1156.9,172.1,1162,169.2,1168.4,169.2z"/>
			</g>
			<g>
				<path class="st1" d="M1168.4,505.9v41c-6.3,0-11.5-3-11.5-6.6v-41C1156.9,502.9,1162,505.9,1168.4,505.9z"/>
			</g>
			<g>
				<path class="st1" d="M1424.4,169.2c6.3,0,11.5,3,11.5,6.6v323.5c0,3.6-5.2,6.6-11.5,6.6h-256.1c-6.3,0-11.5-3-11.5-6.6V175.8
					c0-3.6,5.2-6.6,11.5-6.6H1424.4z"/>
			</g>
			<g>
				<rect x="1168.4" y="505.9" class="st1" width="256.1" height="41"/>
			</g>
			<g>
				<path class="st1" d="M1435.9,499.3v41c0,3.6-5.2,6.6-11.5,6.6v-41C1430.7,505.9,1435.9,502.9,1435.9,499.3z"/>
			</g>
			<g>
				<rect x="1168.4" y="506.4" width="256.1" height="41"/>
			</g>
			<g>
				<path d="M1424.4,168.6c6.9,0,12.5,3.2,12.5,7.2v323.5c0,4-5.6,7.2-12.5,7.2h-256.1c-6.9,0-12.5-3.2-12.5-7.2V175.8
					c0-3.9,5.6-7.2,12.5-7.2H1424.4z M1435.9,499.3V175.8c0-3.6-5.2-6.6-11.5-6.6h-256.1c-6.3,0-11.5,3-11.5,6.6v323.5
					c0,3.6,5.2,6.6,11.5,6.6h256.1C1430.7,505.9,1435.9,502.9,1435.9,499.3"/>
			</g>
			<g>
				<path d="M1436.9,499.3v41c0,4-5.6,7.2-12.5,7.2v-41C1431.3,506.4,1436.9,503.2,1436.9,499.3z"/>
			</g>
			<g>
				<path d="M1168.4,506.4v41c-6.9,0-12.5-3.2-12.5-7.2v-41C1155.9,503.2,1161.5,506.4,1168.4,506.4z"/>
			</g>
		</g>
	</g>
</g>
<ellipse cx="1170.9" cy="181.1" rx="3.9" ry="3.9"/>
<ellipse cx="1423.7" cy="181.1" rx="3.9" ry="3.9"/>
<ellipse cx="1170.9" cy="356" rx="3.9" ry="3.9"/>
<ellipse cx="1423.7" cy="356" rx="3.9" ry="3.9"/>
<ellipse cx="1170.9" cy="488.3" rx="3.9" ry="3.9"/>
<ellipse cx="1423.7" cy="488.3" rx="3.9" ry="3.9"/>
<ellipse class="st2" cx="1380.3" cy="530.6" rx="4.3" ry="4.4"/>
<path class="st1" d="M1256.3,542.6L1256.3,542.6c-1.6,0-2.9-1.3-2.9-2.9v-29.5c0-1.6,1.3-2.9,2.9-2.9l0,0c1.6,0,2.9,1.3,2.9,2.9
	v29.5C1259.3,541.3,1257.9,542.6,1256.3,542.6z"/>
<path class="st1" d="M1264.7,542.5L1264.7,542.5c-1.6,0-2.9-1.3-2.9-2.9V510c0-1.6,1.3-2.9,2.9-2.9l0,0c1.6,0,2.9,1.3,2.9,2.9v29.5
	C1267.6,541.2,1266.3,542.5,1264.7,542.5z"/>
<path class="st1" d="M1273,542.6L1273,542.6c-1.6,0-2.9-1.3-2.9-2.9v-29.5c0-1.6,1.3-2.9,2.9-2.9l0,0c1.6,0,2.9,1.3,2.9,2.9v29.5
	C1275.9,541.3,1274.6,542.6,1273,542.6z"/>
<path class="st1" d="M1281.3,542.5L1281.3,542.5c-1.6,0-2.9-1.3-2.9-2.9V510c0-1.6,1.3-2.9,2.9-2.9l0,0c1.6,0,2.9,1.3,2.9,2.9v29.5
	C1284.3,541.2,1283,542.5,1281.3,542.5z"/>
<path class="st1" d="M1289.7,542.5L1289.7,542.5c-1.6,0-2.9-1.3-2.9-2.9V510c0-1.6,1.3-2.9,2.9-2.9l0,0c1.6,0,2.9,1.3,2.9,2.9v29.5
	C1292.6,541.2,1291.3,542.5,1289.7,542.5z"/>
<path class="st1" d="M1298,542.4L1298,542.4c-1.6,0-2.9-1.3-2.9-2.9v-29.5c0-1.6,1.3-2.9,2.9-2.9l0,0c1.6,0,2.9,1.3,2.9,2.9v29.5
	C1301,541.1,1299.7,542.4,1298,542.4z"/>
<path class="st1" d="M1306.4,542.6L1306.4,542.6c-1.6,0-2.9-1.3-2.9-2.9v-29.5c0-1.6,1.3-2.9,2.9-2.9l0,0c1.6,0,2.9,1.3,2.9,2.9
	v29.5C1309.3,541.2,1308,542.6,1306.4,542.6z"/>
<path class="st1" d="M1314.7,542.5L1314.7,542.5c-1.6,0-2.9-1.3-2.9-2.9V510c0-1.6,1.3-2.9,2.9-2.9h0c1.6,0,2.9,1.3,2.9,2.9v29.5
	C1317.7,541.1,1316.3,542.5,1314.7,542.5z"/>
<path class="st1" d="M1323.1,542.7L1323.1,542.7c-1.6,0-2.9-1.3-2.9-2.9v-29.5c0-1.6,1.3-2.9,2.9-2.9l0,0c1.6,0,2.9,1.3,2.9,2.9
	v29.5C1326,541.3,1324.7,542.7,1323.1,542.7z"/>
<path class="st1" d="M1331.4,542.6L1331.4,542.6c-1.6,0-2.9-1.3-2.9-2.9v-29.5c0-1.6,1.3-2.9,2.9-2.9l0,0c1.6,0,2.9,1.3,2.9,2.9
	v29.5C1334.4,541.3,1333,542.6,1331.4,542.6z"/>
<path class="st1" d="M1339.8,542.5L1339.8,542.5c-1.6,0-2.9-1.3-2.9-2.9V510c0-1.6,1.3-2.9,2.9-2.9l0,0c1.6,0,2.9,1.3,2.9,2.9v29.5
	C1342.7,541.1,1341.4,542.5,1339.8,542.5z"/>
<path class="st1" d="M1348.1,542.4L1348.1,542.4c-1.6,0-2.9-1.3-2.9-2.9v-29.5c0-1.6,1.3-2.9,2.9-2.9l0,0c1.6,0,2.9,1.3,2.9,2.9
	v29.5C1351.1,541.1,1349.7,542.4,1348.1,542.4z"/>
<circle class="st3" cx="1296.3" cy="392.1" r="97.1"/>
<circle class="st3" cx="1295.4" cy="392.1" r="39.7"/>
<path class="st3" d="M1406.5,273h-80.7c-6.6,0-12-5.4-12-12v-43c0-6.6,5.4-12,12-12h80.7c6.6,0,12,5.4,12,12v43
	C1418.5,267.6,1413.1,273,1406.5,273z"/>
<path class="st3" d="M1209,295h-22.6c-6.6,0-12-5.4-12-12v-65c0-6.6,5.4-12,12-12h22.6c6.6,0,12,5.4,12,12v65
	C1221,289.6,1215.6,295,1209,295z"/>
<rect x="1193.7" y="509.5" class="st4" width="27.3" height="42.4"/>
<text transform="matrix(1 0 0 1 1193.7234 542.1625)" class="st5 st6 st7">R</text>
<rect x="1192.4" y="553" class="st4" width="38.3" height="59.8"/>
<text transform="matrix(1 0 0 1 1192.3779 585.6589)" class="st5 st6 st7">A</text>
<rect x="1200" y="596.1" class="st4" width="27.3" height="42.4"/>
<text transform="matrix(1 0 0 1 1200.0388 628.7355)" class="st5 st6 st7">I</text>
<rect x="1192.4" y="637.4" class="st4" width="38.3" height="50.6"/>
<text transform="matrix(1 0 0 1 1192.3779 670.0114)" class="st5 st6 st7">D</text>
</svg>
