<?xml version="1.0" encoding="utf-8"?>
<!-- Generator: Adobe Illustrator 19.2.1, SVG Export Plug-In . SVG Version: 6.00 Build 0)  -->
<svg version="1.1" id="Ebene_1" xmlns="http://www.w3.org/2000/svg" xmlns:xlink="http://www.w3.org/1999/xlink" x="0px" y="0px"
	 viewBox="0 0 960 560" style="enable-background:new 0 0 960 560;" xml:space="preserve">
<style type="text/css">
	.st0{fill:#333333;}
	.st1{fill:#FFFFFF;}
</style>
<rect x="345.3" y="271.3" class="st0" width="14" height="66.3"/>
<circle class="st1" cx="352.4" cy="277.9" r="1.9"/>
<circle class="st1" cx="352.4" cy="330.9" r="1.9"/>
<rect x="544.3" y="271.3" class="st0" width="14" height="66.3"/>
<circle class="st1" cx="551.4" cy="277.9" r="1.9"/>
<circle class="st1" cx="551.4" cy="330.9" r="1.9"/>
<rect x="361.8" y="271.3" class="st0" width="180" height="66.3"/>
<rect x="377" y="291.4" class="st1" width="69.8" height="1.7"/>
<rect x="377" y="294.9" class="st1" width="69.8" height="1.7"/>
<rect x="377" y="298.8" class="st1" width="69.8" height="1.7"/>
<rect x="377" y="302.3" class="st1" width="69.8" height="1.7"/>
<rect x="377" y="305.8" class="st1" width="69.8" height="1.7"/>
<rect x="377" y="309.3" class="st1" width="69.8" height="1.7"/>
<rect x="377" y="313.1" class="st1" width="69.8" height="1.7"/>
<rect x="377" y="316.6" class="st1" width="69.8" height="1.7"/>
<rect x="469" y="293" class="st1" width="58.5" height="10.8"/>
<rect x="469" y="307.6" class="st1" width="58.5" height="10.8"/>
</svg>
